<?xml version="1.0" encoding="UTF-8" standalone="no"?>
<!-- Created with Inkscape (http://www.inkscape.org/) -->

<svg
   xmlns:dc="http://purl.org/dc/elements/1.1/"
   xmlns:cc="http://creativecommons.org/ns#"
   xmlns:rdf="http://www.w3.org/1999/02/22-rdf-syntax-ns#"
   xmlns:svg="http://www.w3.org/2000/svg"
   xmlns="http://www.w3.org/2000/svg"
   xmlns:sodipodi="http://sodipodi.sourceforge.net/DTD/sodipodi-0.dtd"
   xmlns:inkscape="http://www.inkscape.org/namespaces/inkscape"
   width="168.40359mm"
   height="19.998001mm"
   viewBox="0 0 168.40359 19.998001"
   version="1.1"
   id="svg1133"
   inkscape:version="0.92.3 (2405546, 2018-03-11)"
   sodipodi:docname="hashtag.svg">
  <defs
     id="defs1127" />
  <sodipodi:namedview
     id="base"
     pagecolor="#ffffff"
     bordercolor="#666666"
     borderopacity="1.0"
     inkscape:pageopacity="0.0"
     inkscape:pageshadow="2"
     inkscape:zoom="0.35"
     inkscape:cx="1422.5287"
     inkscape:cy="-807.92278"
     inkscape:document-units="mm"
     inkscape:current-layer="layer1"
     showgrid="false"
     fit-margin-top="0"
     fit-margin-left="0"
     fit-margin-right="0"
     fit-margin-bottom="0"
     inkscape:window-width="1920"
     inkscape:window-height="1052"
     inkscape:window-x="0"
     inkscape:window-y="0"
     inkscape:window-maximized="1" />
  <metadata
     id="metadata1130">
    <rdf:RDF>
      <cc:Work
         rdf:about="">
        <dc:format>image/svg+xml</dc:format>
        <dc:type
           rdf:resource="http://purl.org/dc/dcmitype/StillImage" />
        <dc:title></dc:title>
      </cc:Work>
    </rdf:RDF>
  </metadata>
  <g
     inkscape:label="Layer 1"
     inkscape:groupmode="layer"
     id="layer1"
     transform="translate(402.45775,84.927571)">
    <g
       transform="matrix(0.26458333,0,0,0.26458333,-431.78152,-183.30468)"
       id="g98">
      <rect
         style="fill:#e97e24"
         x="110.83"
         y="371.819"
         width="636.48602"
         height="75.583"
         id="rect62" />
      <path
         style="fill:#ffffff"
         inkscape:connector-curvature="0"
         d="m 149.457,401.735 -1.421,10.55 h 6.425 v 6.086 h -7.236 l -1.488,10.956 h -5.883 l 1.487,-10.956 h -11.564 l -1.488,10.956 h -5.883 l 1.488,-10.956 h -5.748 v -6.086 h 6.559 l 1.353,-10.55 h -6.357 v -6.086 h 7.168 l 1.488,-10.956 h 6.019 l -1.488,10.956 h 11.429 l 1.488,-10.956 h 5.951 l -1.488,10.956 h 5.681 v 6.086 z m -7.372,10.753 1.488,-10.956 h -11.497 l -1.487,10.956 z"
         id="path64" />
      <polygon
         style="fill:#ffffff"
         points="193.075,384.693 201.123,384.693 181.443,430.071 179.009,430.071 159.33,384.693 167.377,384.693 180.227,415.734 "
         id="polygon66" />
      <path
         style="fill:#ffffff"
         inkscape:connector-curvature="0"
         d="m 219.044,395.378 c 9.671,-0.203 17.853,7.912 17.65,17.312 0.203,9.4 -7.979,17.583 -17.65,17.381 -9.536,0.202 -17.719,-7.981 -17.516,-17.381 -0.203,-9.535 7.98,-17.447 17.516,-17.312 m 0.067,6.492 c -5.883,0 -10.347,4.734 -10.347,10.888 0,6.154 4.464,10.753 10.28,10.753 5.883,0 10.346,-4.734 10.346,-10.753 0,-6.154 -4.53,-10.888 -10.279,-10.888"
         id="path68" />
      <rect
         style="fill:#ffffff"
         x="244.80901"
         y="378.60599"
         width="7.1009998"
         height="50.720001"
         id="rect70" />
      <polygon
         style="fill:#ffffff"
         points="285.317,396.121 292.891,396.121 276.863,430.07 274.429,430.07 258.334,396.121 265.908,396.121 275.646,418.1 "
         id="polygon72" />
      <path
         style="fill:#ffffff"
         inkscape:connector-curvature="0"
         d="m 324.338,429.327 h -6.627 v -3.72 c -2.435,2.908 -6.086,4.464 -10.617,4.464 -6.966,0 -11.565,-3.855 -11.565,-9.604 0,-5.748 4.734,-9.468 12.241,-9.468 h 9.4 v -2.164 c 0,-4.598 -2.57,-7.1 -7.101,-7.1 -3.719,0 -6.424,1.623 -9.197,4.936 l -4.125,-4.192 c 3.314,-4.802 8.25,-7.101 13.998,-7.101 8.183,0 13.593,4.937 13.593,13.864 z m -7.168,-13.188 h -8.521 c -3.787,0 -5.883,1.353 -5.883,4.058 0,2.773 2.366,4.396 5.815,4.396 4.802,0 8.589,-3.314 8.589,-7.845 z"
         id="path74" />
      <path
         style="fill:#ffffff"
         inkscape:connector-curvature="0"
         d="m 384.053,429.326 h -7.169 v -19.747 c 0,-4.666 -2.637,-7.71 -6.897,-7.71 -4.329,0 -7.304,3.111 -7.304,7.372 v 20.085 h -7.101 v -19.747 c 0,-4.599 -2.705,-7.71 -6.966,-7.71 -4.328,0 -7.303,3.111 -7.303,7.71 v 19.747 h -7.101 v -33.205 h 6.627 v 3.111 c 2.367,-2.434 5.613,-3.855 9.603,-3.855 4.599,0 8.115,1.962 10.077,5.208 2.434,-3.179 6.559,-5.208 11.225,-5.208 7.642,0 12.309,5.275 12.309,13.187 z"
         id="path76" />
      <path
         style="fill:#ffffff"
         inkscape:connector-curvature="0"
         d="m 409.344,395.378 c 9.671,-0.203 17.854,7.912 17.651,17.312 0.203,9.4 -7.98,17.583 -17.651,17.381 -9.536,0.202 -17.718,-7.981 -17.515,-17.381 -0.203,-9.535 7.979,-17.447 17.515,-17.312 m 0.068,6.492 c -5.884,0 -10.347,4.734 -10.347,10.888 0,6.154 4.463,10.753 10.279,10.753 5.883,0 10.347,-4.734 10.347,-10.753 0,-6.154 -4.531,-10.888 -10.279,-10.888"
         id="path78" />
      <path
         style="fill:#ffffff"
         inkscape:connector-curvature="0"
         d="m 436.056,419.182 c 2.908,3.043 5.816,4.734 9.333,4.734 3.042,0 5.342,-1.285 5.342,-3.72 0,-1.961 -1.42,-2.772 -4.666,-4.125 l -3.382,-1.42 c -5.883,-2.434 -8.656,-5.005 -8.656,-9.671 0,-5.951 4.937,-9.603 11.699,-9.603 4.802,0 8.589,1.691 11.497,5.14 l -3.855,4.396 c -2.096,-2.164 -4.869,-3.382 -7.776,-3.382 -2.773,0 -4.532,1.082 -4.532,3.179 0,1.69 1.15,2.57 4.396,3.922 l 3.179,1.285 c 6.289,2.638 9.061,5.343 9.061,10.009 0,3.178 -1.149,5.68 -3.515,7.506 -2.368,1.759 -5.276,2.638 -8.792,2.638 -5.681,0 -10.415,-2.57 -13.391,-6.425 z"
         id="path80" />
      <path
         style="fill:#ffffff"
         inkscape:connector-curvature="0"
         d="m 493.132,421.887 h -20.086 l -3.178,7.439 h -7.642 l 19.679,-45.378 h 2.435 l 19.679,45.378 h -7.709 z m -10.009,-24.616 -7.507,18.462 h 14.945 z"
         id="path82" />
      <path
         style="fill:#ffffff"
         inkscape:connector-curvature="0"
         d="m 511.119,384.693 h 13.999 c 14.608,0 24.278,9.062 24.278,22.249 0,12.984 -9.739,22.385 -24.278,22.385 h -13.999 z m 13.931,38.209 c 10.348,0 16.975,-6.627 16.975,-15.96 0,-9.468 -6.56,-15.757 -16.975,-15.757 h -6.763 v 31.717 z"
         id="path84" />
      <path
         style="fill:#ffffff"
         inkscape:connector-curvature="0"
         d="m 562.582,415.057 c 0.879,5.41 5.139,8.724 10.82,8.724 3.449,0 6.695,-1.285 9.671,-3.922 l 3.381,4.869 c -3.787,3.584 -8.183,5.343 -13.255,5.343 -10.144,0 -17.854,-7.507 -17.854,-17.313 -0.202,-9.536 7.778,-17.583 17.178,-17.38 8.791,0 15.351,6.56 15.351,15.216 0,1.42 -0.203,2.908 -0.541,4.463 z m 18.191,-5.545 c -0.067,-5.072 -3.854,-8.115 -8.521,-8.115 -4.666,0 -8.453,3.178 -9.535,8.115 z"
         id="path86" />
      <path
         style="fill:#ffffff"
         inkscape:connector-curvature="0"
         d="m 614.249,430.071 c -4.869,0 -9.13,-1.894 -11.633,-5.343 v 4.599 h -6.627 v -50.721 h 7.101 v 21.573 c 2.503,-3.043 6.492,-4.801 11.09,-4.801 9.401,0 16.299,7.506 16.299,17.38 0,9.806 -6.966,17.313 -16.23,17.313 m -1.218,-28.201 c -5.207,0 -10.009,3.584 -10.009,10.888 0,7.236 4.802,10.82 10.009,10.82 5.748,0 10.144,-4.531 10.144,-10.888 0,-6.357 -4.463,-10.82 -10.144,-10.82"
         id="path88" />
      <path
         style="fill:#ffffff"
         inkscape:connector-curvature="0"
         d="m 665.036,429.327 h -6.628 v -3.72 c -2.435,2.908 -6.087,4.464 -10.617,4.464 -6.966,0 -11.565,-3.855 -11.565,-9.604 0,-5.748 4.734,-9.468 12.241,-9.468 h 9.4 v -2.164 c 0,-4.598 -2.569,-7.1 -7.101,-7.1 -3.719,0 -6.424,1.623 -9.197,4.936 l -4.125,-4.192 c 3.314,-4.802 8.25,-7.101 13.998,-7.101 8.184,0 13.594,4.937 13.594,13.864 z m -7.169,-13.188 h -8.521 c -3.787,0 -5.883,1.353 -5.883,4.058 0,2.773 2.366,4.396 5.815,4.396 4.802,0 8.589,-3.314 8.589,-7.845 z"
         id="path90" />
      <path
         style="fill:#ffffff"
         inkscape:connector-curvature="0"
         d="m 694.656,429.326 c -2.231,0.474 -4.192,0.744 -5.884,0.744 -7.641,0 -12.24,-3.787 -12.24,-11.564 v -16.231 h -5.41 v -6.154 h 5.41 v -8.724 h 7.168 v 8.724 h 9.874 v 6.154 H 683.7 v 15.622 c 0,4.261 2.232,5.748 6.56,5.748 1.014,0 2.435,-0.135 4.396,-0.338 z"
         id="path92" />
      <path
         style="fill:#ffffff"
         inkscape:connector-curvature="0"
         d="m 705.408,379.011 c 2.638,0 4.802,2.097 4.802,4.734 0,2.638 -2.164,4.667 -4.802,4.667 -2.705,0 -4.869,-2.029 -4.869,-4.667 0,-2.636 2.164,-4.734 4.869,-4.734 m -3.584,17.11 h 7.101 v 33.205 h -7.101 z"
         id="path94" />
      <path
         style="fill:#ffffff"
         inkscape:connector-curvature="0"
         d="m 738.206,402.411 h -2.164 c -5.613,0 -9.738,3.314 -9.738,9.197 v 17.719 h -7.101 v -33.206 h 6.628 v 4.329 c 2.366,-2.976 5.883,-4.666 9.67,-4.666 1.015,0 1.893,0.135 2.705,0.337 z"
         id="path96" />
    </g>
  </g>
</svg>
