<?xml version="1.0" encoding="utf-8"?>
<!-- Generator: Adobe Illustrator 17.0.0, SVG Export Plug-In . SVG Version: 6.00 Build 0)  -->
<!DOCTYPE svg PUBLIC "-//W3C//DTD SVG 1.1//EN" "http://www.w3.org/Graphics/SVG/1.1/DTD/svg11.dtd">
<svg version="1.1" id="Layer_1" xmlns="http://www.w3.org/2000/svg" xmlns:xlink="http://www.w3.org/1999/xlink" x="0px" y="0px"
	 width="402.398px" height="244.755px" viewBox="0 0 402.398 244.755" enable-background="new 0 0 402.398 244.755"
	 xml:space="preserve">
<polygon fill="#818181" points="90.296,21.05 80.044,42.858 78.775,42.858 68.522,21.05 72.715,21.05 79.409,35.968 86.103,21.05 
	"/>
<polygon fill="none" stroke="#818181" stroke-miterlimit="10" points="90.296,21.05 80.044,42.858 78.775,42.858 68.522,21.05 
	72.715,21.05 79.409,35.968 86.103,21.05 "/>
<path fill="#818181" d="M95.618,18.319c1.374,0,2.501,1.008,2.501,2.275c0,1.268-1.127,2.243-2.501,2.243
	c-1.409,0-2.537-0.975-2.537-2.243C93.081,19.327,94.209,18.319,95.618,18.319 M93.751,26.542h3.699V42.5h-3.699V26.542z"/>
<path fill="none" stroke="#818181" stroke-miterlimit="10" d="M95.618,18.319c1.374,0,2.501,1.008,2.501,2.275
	c0,1.268-1.127,2.243-2.501,2.243c-1.409,0-2.537-0.975-2.537-2.243C93.081,19.327,94.209,18.319,95.618,18.319z M93.751,26.542
	h3.699V42.5h-3.699V26.542z"/>
<path fill="#818181" d="M105.484,35.643c0.458,2.6,2.678,4.193,5.638,4.193c1.797,0,3.487-0.618,5.038-1.885l1.761,2.34
	c-1.973,1.723-4.263,2.567-6.905,2.567c-5.285,0-9.302-3.607-9.302-8.32c-0.105-4.582,4.052-8.45,8.95-8.352
	c4.58,0,7.997,3.152,7.997,7.312c0,0.683-0.105,1.397-0.282,2.145H105.484z M114.962,32.978c-0.035-2.438-2.008-3.9-4.439-3.9
	c-2.432,0-4.404,1.527-4.968,3.9H114.962z"/>
<path fill="none" stroke="#818181" stroke-miterlimit="10" d="M105.484,35.643c0.458,2.6,2.678,4.193,5.638,4.193
	c1.797,0,3.487-0.618,5.038-1.885l1.761,2.34c-1.973,1.723-4.263,2.567-6.905,2.567c-5.285,0-9.302-3.607-9.302-8.32
	c-0.105-4.582,4.052-8.45,8.95-8.352c4.58,0,7.997,3.152,7.997,7.312c0,0.683-0.105,1.397-0.282,2.145H105.484z M114.962,32.978
	c-0.035-2.438-2.008-3.9-4.439-3.9c-2.432,0-4.404,1.527-4.968,3.9H114.962z"/>
<path fill="#818181" d="M132.791,29.565h-1.127c-2.925,0-5.074,1.593-5.074,4.42v8.516h-3.699V26.543h3.452v2.08
	c1.234-1.431,3.066-2.243,5.039-2.243c0.528,0,0.986,0.065,1.409,0.163V29.565z"/>
<path fill="none" stroke="#818181" stroke-miterlimit="10" d="M132.791,29.565h-1.127c-2.925,0-5.074,1.593-5.074,4.42v8.516h-3.699
	V26.543h3.452v2.08c1.234-1.431,3.066-2.243,5.039-2.243c0.528,0,0.986,0.065,1.409,0.163V29.565z"/>
<path fill="#818181" d="M151.219,42.501h-3.7v-9.523c0-2.21-1.514-3.705-3.769-3.705c-2.29,0-3.947,1.527-3.947,3.705v9.523h-3.699
	V26.543h3.453v1.56c1.304-1.268,3.03-1.917,5.179-1.917c4.052,0,6.483,2.534,6.483,6.337V42.501z"/>
<path fill="none" stroke="#818181" stroke-miterlimit="10" d="M151.219,42.501h-3.7v-9.523c0-2.21-1.514-3.705-3.769-3.705
	c-2.29,0-3.947,1.527-3.947,3.705v9.523h-3.699V26.543h3.453v1.56c1.304-1.268,3.03-1.917,5.179-1.917
	c4.052,0,6.483,2.534,6.483,6.337V42.501z"/>
<path fill="#818181" d="M159.043,35.643c0.458,2.6,2.678,4.193,5.638,4.193c1.797,0,3.487-0.618,5.038-1.885l1.761,2.34
	c-1.973,1.723-4.263,2.567-6.905,2.567c-5.285,0-9.302-3.607-9.302-8.32c-0.105-4.582,4.052-8.45,8.95-8.352
	c4.58,0,7.997,3.152,7.997,7.312c0,0.683-0.105,1.397-0.282,2.145H159.043z M168.521,32.978c-0.035-2.438-2.008-3.9-4.439-3.9
	c-2.432,0-4.404,1.527-4.968,3.9H168.521z"/>
<path fill="none" stroke="#818181" stroke-miterlimit="10" d="M159.043,35.643c0.458,2.6,2.678,4.193,5.638,4.193
	c1.797,0,3.487-0.618,5.038-1.885l1.761,2.34c-1.973,1.723-4.263,2.567-6.905,2.567c-5.285,0-9.302-3.607-9.302-8.32
	c-0.105-4.582,4.052-8.45,8.95-8.352c4.58,0,7.997,3.152,7.997,7.312c0,0.683-0.105,1.397-0.282,2.145H159.043z M168.521,32.978
	c-0.035-2.438-2.008-3.9-4.439-3.9c-2.432,0-4.404,1.527-4.968,3.9H168.521z"/>
<path fill="#818181" d="M176.943,37.626c1.515,1.462,3.03,2.275,4.862,2.275c1.586,0,2.784-0.618,2.784-1.788
	c0-0.942-0.74-1.332-2.432-1.982l-1.761-0.683c-3.065-1.17-4.51-2.405-4.51-4.648c0-2.86,2.572-4.614,6.095-4.614
	c2.502,0,4.475,0.812,5.99,2.469l-2.008,2.113c-1.093-1.04-2.537-1.625-4.052-1.625c-1.445,0-2.361,0.52-2.361,1.527
	c0,0.813,0.599,1.236,2.29,1.886l1.656,0.617c3.277,1.268,4.721,2.568,4.721,4.81c0,1.528-0.599,2.73-1.832,3.608
	c-1.233,0.845-2.748,1.267-4.58,1.267c-2.959,0-5.425-1.234-6.976-3.087L176.943,37.626z"/>
<path fill="none" stroke="#818181" stroke-miterlimit="10" d="M176.943,37.626c1.515,1.462,3.03,2.275,4.862,2.275
	c1.586,0,2.784-0.618,2.784-1.788c0-0.942-0.74-1.332-2.432-1.982l-1.761-0.683c-3.065-1.17-4.51-2.405-4.51-4.648
	c0-2.86,2.572-4.614,6.095-4.614c2.502,0,4.475,0.812,5.99,2.469l-2.008,2.113c-1.093-1.04-2.537-1.625-4.052-1.625
	c-1.445,0-2.361,0.52-2.361,1.527c0,0.813,0.599,1.236,2.29,1.886l1.656,0.617c3.277,1.268,4.721,2.568,4.721,4.81
	c0,1.528-0.599,2.73-1.832,3.608c-1.233,0.845-2.748,1.267-4.58,1.267c-2.959,0-5.425-1.234-6.976-3.087L176.943,37.626z"/>
<path fill="#818181" d="M76.661,76.981c-3.77,0-6.624-1.885-8.174-4.647l2.607-1.691c1.409,1.983,3.065,3.186,5.461,3.186
	c2.783,0,4.756-1.625,4.756-4.063s-1.937-3.77-5.355-3.77h-2.572v-0.943l5.426-6.728h-8.667v-3.152h14.48v0.942l-5.637,7.021
	c1.727,0.26,3.171,0.974,4.369,2.112c1.198,1.138,1.797,2.633,1.797,4.485C85.152,74.088,81.241,76.981,76.661,76.981"/>
<path fill="none" stroke="#818181" stroke-miterlimit="10" d="M76.661,76.981c-3.77,0-6.624-1.885-8.174-4.647l2.607-1.691
	c1.409,1.983,3.065,3.186,5.461,3.186c2.783,0,4.756-1.625,4.756-4.063s-1.937-3.77-5.355-3.77h-2.572v-0.943l5.426-6.728h-8.667
	v-3.152h14.48v0.942l-5.637,7.021c1.727,0.26,3.171,0.974,4.369,2.112c1.198,1.138,1.797,2.633,1.797,4.485
	C85.152,74.088,81.241,76.981,76.661,76.981z"/>
<polygon fill="#818181" points="97.098,55.172 97.098,76.624 93.364,76.624 93.364,59.234 88.642,60.633 87.726,57.611 
	95.795,55.172 "/>
<polygon fill="none" stroke="#818181" stroke-miterlimit="10" points="97.098,55.172 97.098,76.624 93.364,76.624 93.364,59.234 
	88.642,60.633 87.726,57.611 95.795,55.172 "/>
<path fill="#818181" d="M113.413,55.173h7.293c7.611,0,12.649,4.355,12.649,10.693c0,6.24-5.074,10.757-12.649,10.757h-7.293V55.173
	z M120.671,73.536c5.391,0,8.843-3.186,8.843-7.67c0-4.551-3.417-7.573-8.843-7.573h-3.523v15.243H120.671z"/>
<path fill="none" stroke="#818181" stroke-miterlimit="10" d="M113.413,55.173h7.293c7.611,0,12.649,4.355,12.649,10.693
	c0,6.24-5.074,10.757-12.649,10.757h-7.293V55.173z M120.671,73.536c5.391,0,8.843-3.186,8.843-7.67
	c0-4.551-3.417-7.573-8.843-7.573h-3.523v15.243H120.671z"/>
<path fill="#818181" d="M140.227,69.765c0.458,2.6,2.678,4.193,5.638,4.193c1.797,0,3.487-0.618,5.038-1.885l1.761,2.34
	c-1.973,1.723-4.263,2.567-6.905,2.567c-5.285,0-9.302-3.607-9.302-8.32c-0.105-4.582,4.052-8.45,8.95-8.352
	c4.58,0,7.997,3.152,7.997,7.312c0,0.683-0.105,1.397-0.282,2.145H140.227z M149.705,67.1c-0.035-2.438-2.008-3.9-4.439-3.9
	c-2.432,0-4.404,1.527-4.968,3.9H149.705z"/>
<path fill="none" stroke="#818181" stroke-miterlimit="10" d="M140.227,69.765c0.458,2.6,2.678,4.193,5.638,4.193
	c1.797,0,3.487-0.618,5.038-1.885l1.761,2.34c-1.973,1.723-4.263,2.567-6.905,2.567c-5.285,0-9.302-3.607-9.302-8.32
	c-0.105-4.582,4.052-8.45,8.95-8.352c4.58,0,7.997,3.152,7.997,7.312c0,0.683-0.105,1.397-0.282,2.145H140.227z M149.705,67.1
	c-0.035-2.438-2.008-3.9-4.439-3.9c-2.432,0-4.404,1.527-4.968,3.9H149.705z"/>
<path fill="#818181" d="M165.563,73.666c1.057,0.097,1.868,0.163,2.396,0.163c2.431,0,3.629-0.716,3.629-2.893V55.173h3.735v16.12
	c0,3.803-2.431,5.688-6.554,5.688c-1.021,0-2.079-0.13-3.206-0.357V73.666z"/>
<path fill="none" stroke="#818181" stroke-miterlimit="10" d="M165.563,73.666c1.057,0.097,1.868,0.163,2.396,0.163
	c2.431,0,3.629-0.716,3.629-2.893V55.173h3.735v16.12c0,3.803-2.431,5.688-6.554,5.688c-1.021,0-2.079-0.13-3.206-0.357V73.666z"/>
<path fill="#818181" d="M180.749,60.665h3.664v9.523c0,2.21,1.656,3.64,3.911,3.64c2.149,0,3.805-1.43,3.805-3.64v-9.523h3.7v9.263
	c0,4.29-3.277,7.052-7.505,7.052c-4.334,0-7.575-2.762-7.575-7.052V60.665z"/>
<path fill="none" stroke="#818181" stroke-miterlimit="10" d="M180.749,60.665h3.664v9.523c0,2.21,1.656,3.64,3.911,3.64
	c2.149,0,3.805-1.43,3.805-3.64v-9.523h3.7v9.263c0,4.29-3.277,7.052-7.505,7.052c-4.334,0-7.575-2.762-7.575-7.052V60.665z"/>
<rect x="201.009" y="52.248" fill="#818181" width="3.699" height="24.376"/>
<rect x="201.009" y="52.248" fill="none" stroke="#818181" stroke-miterlimit="10" width="3.699" height="24.376"/>
<path fill="#818181" d="M211.932,52.442c1.374,0,2.502,1.007,2.502,2.275c0,1.267-1.128,2.243-2.502,2.243
	c-1.409,0-2.536-0.976-2.536-2.243C209.396,53.449,210.523,52.442,211.932,52.442 M210.065,60.666h3.699v15.958h-3.699V60.666z"/>
<path fill="none" stroke="#818181" stroke-miterlimit="10" d="M211.932,52.442c1.374,0,2.502,1.007,2.502,2.275
	c0,1.267-1.128,2.243-2.502,2.243c-1.409,0-2.536-0.976-2.536-2.243C209.396,53.449,210.523,52.442,211.932,52.442z M210.065,60.666
	h3.699v15.958h-3.699V60.666z"/>
<path fill="#818181" d="M227.153,60.308c5.039-0.098,9.302,3.802,9.196,8.32c0.106,4.518-4.157,8.45-9.196,8.353
	c-4.967,0.097-9.23-3.835-9.125-8.353C217.923,64.045,222.186,60.242,227.153,60.308 M227.189,63.428
	c-3.065,0-5.391,2.275-5.391,5.232c0,2.958,2.326,5.168,5.355,5.168c3.066,0,5.391-2.275,5.391-5.168
	C232.544,65.703,230.184,63.428,227.189,63.428"/>
<path fill="none" stroke="#818181" stroke-miterlimit="10" d="M227.153,60.308c5.039-0.098,9.302,3.802,9.196,8.32
	c0.106,4.518-4.157,8.45-9.196,8.353c-4.967,0.097-9.23-3.835-9.125-8.353C217.923,64.045,222.186,60.242,227.153,60.308z
	 M227.189,63.428c-3.065,0-5.391,2.275-5.391,5.232c0,2.958,2.326,5.168,5.355,5.168c3.066,0,5.391-2.275,5.391-5.168
	C232.544,65.703,230.184,63.428,227.189,63.428z"/>
<path fill="#818181" d="M250.692,55.173h7.293c7.611,0,12.649,4.355,12.649,10.693c0,6.24-5.074,10.757-12.649,10.757h-7.293V55.173
	z M257.95,73.536c5.391,0,8.843-3.186,8.843-7.67c0-4.551-3.417-7.573-8.843-7.573h-3.523v15.243H257.95z"/>
<path fill="none" stroke="#818181" stroke-miterlimit="10" d="M250.692,55.173h7.293c7.611,0,12.649,4.355,12.649,10.693
	c0,6.24-5.074,10.757-12.649,10.757h-7.293V55.173z M257.95,73.536c5.391,0,8.843-3.186,8.843-7.67c0-4.551-3.417-7.573-8.843-7.573
	h-3.523v15.243H257.95z"/>
<path fill="#818181" d="M277.506,69.765c0.458,2.6,2.678,4.193,5.638,4.193c1.797,0,3.487-0.618,5.038-1.885l1.761,2.34
	c-1.973,1.723-4.263,2.567-6.905,2.567c-5.285,0-9.302-3.607-9.302-8.32c-0.105-4.582,4.052-8.45,8.95-8.352
	c4.58,0,7.997,3.152,7.997,7.312c0,0.683-0.105,1.397-0.282,2.145H277.506z M286.984,67.1c-0.035-2.438-2.008-3.9-4.439-3.9
	c-2.432,0-4.404,1.527-4.968,3.9H286.984z"/>
<path fill="none" stroke="#818181" stroke-miterlimit="10" d="M277.506,69.765c0.458,2.6,2.678,4.193,5.638,4.193
	c1.797,0,3.487-0.618,5.038-1.885l1.761,2.34c-1.973,1.723-4.263,2.567-6.905,2.567c-5.285,0-9.302-3.607-9.302-8.32
	c-0.105-4.582,4.052-8.45,8.95-8.352c4.58,0,7.997,3.152,7.997,7.312c0,0.683-0.105,1.397-0.282,2.145H277.506z M286.984,67.1
	c-0.035-2.438-2.008-3.9-4.439-3.9c-2.432,0-4.404,1.527-4.968,3.9H286.984z"/>
<path fill="#818181" d="M320.387,73.633v2.99h-16.665v-0.78l8.28-8.223c2.572-2.502,3.699-4.062,3.699-5.883
	c0-2.177-1.515-3.77-3.876-3.77c-2.36,0-3.945,1.69-3.945,3.901c0,0.454,0.07,1.007,0.175,1.657h-3.769
	c-0.176-0.585-0.247-1.203-0.247-1.852c0-3.511,3.065-6.858,7.822-6.858c4.439,0,7.716,2.893,7.716,6.663
	c0,1.462-0.423,2.795-1.269,3.997c-0.81,1.203-2.043,2.568-3.664,4.16l-4.087,3.998H320.387z"/>
<path fill="none" stroke="#818181" stroke-miterlimit="10" d="M320.387,73.633v2.99h-16.665v-0.78l8.28-8.223
	c2.572-2.502,3.699-4.062,3.699-5.883c0-2.177-1.515-3.77-3.876-3.77c-2.36,0-3.945,1.69-3.945,3.901
	c0,0.454,0.07,1.007,0.175,1.657h-3.769c-0.176-0.585-0.247-1.203-0.247-1.852c0-3.511,3.065-6.858,7.822-6.858
	c4.439,0,7.716,2.893,7.716,6.663c0,1.462-0.423,2.795-1.269,3.997c-0.81,1.203-2.043,2.568-3.664,4.16l-4.087,3.998H320.387z"/>
<path fill="#818181" d="M326.661,57.838c1.515-2.015,3.7-3.022,6.624-3.022c2.924,0,5.109,1.007,6.588,2.989
	c1.516,1.983,2.255,4.616,2.255,7.898c0,6.338-2.854,11.278-8.843,11.278c-5.955,0-8.878-4.94-8.878-11.278
	C324.407,62.452,325.146,59.82,326.661,57.838 M333.285,57.967c-3.347,0-5.003,2.6-5.003,7.768c0,5.07,1.586,8.093,5.003,8.093
	c3.417,0,4.968-3.023,4.968-8.093C338.253,60.567,336.597,57.967,333.285,57.967"/>
<path fill="none" stroke="#818181" stroke-miterlimit="10" d="M326.661,57.838c1.515-2.015,3.7-3.022,6.624-3.022
	c2.924,0,5.109,1.007,6.588,2.989c1.516,1.983,2.255,4.616,2.255,7.898c0,6.338-2.854,11.278-8.843,11.278
	c-5.955,0-8.878-4.94-8.878-11.278C324.407,62.452,325.146,59.82,326.661,57.838z M333.285,57.967c-3.347,0-5.003,2.6-5.003,7.768
	c0,5.07,1.586,8.093,5.003,8.093c3.417,0,4.968-3.023,4.968-8.093C338.253,60.567,336.597,57.967,333.285,57.967z"/>
<path fill="#818181" d="M362.565,73.633v2.99H345.9v-0.78l8.28-8.223c2.572-2.502,3.699-4.062,3.699-5.883
	c0-2.177-1.515-3.77-3.876-3.77c-2.36,0-3.945,1.69-3.945,3.901c0,0.454,0.07,1.007,0.175,1.657h-3.769
	c-0.176-0.585-0.247-1.203-0.247-1.852c0-3.511,3.065-6.858,7.822-6.858c4.439,0,7.716,2.893,7.716,6.663
	c0,1.462-0.423,2.795-1.269,3.997c-0.81,1.203-2.043,2.568-3.664,4.16l-4.087,3.998H362.565z"/>
<path fill="none" stroke="#818181" stroke-miterlimit="10" d="M362.565,73.633v2.99H345.9v-0.78l8.28-8.223
	c2.572-2.502,3.699-4.062,3.699-5.883c0-2.177-1.515-3.77-3.876-3.77c-2.36,0-3.945,1.69-3.945,3.901
	c0,0.454,0.07,1.007,0.175,1.657h-3.769c-0.176-0.585-0.247-1.203-0.247-1.852c0-3.511,3.065-6.858,7.822-6.858
	c4.439,0,7.716,2.893,7.716,6.663c0,1.462-0.423,2.795-1.269,3.997c-0.81,1.203-2.043,2.568-3.664,4.16l-4.087,3.998H362.565z"/>
<path fill="#818181" d="M368.839,57.838c1.515-2.015,3.7-3.022,6.624-3.022c2.924,0,5.109,1.007,6.588,2.989
	c1.516,1.983,2.255,4.616,2.255,7.898c0,6.338-2.854,11.278-8.843,11.278c-5.955,0-8.878-4.94-8.878-11.278
	C366.584,62.452,367.323,59.82,368.839,57.838 M375.463,57.967c-3.347,0-5.003,2.6-5.003,7.768c0,5.07,1.586,8.093,5.003,8.093
	c3.417,0,4.968-3.023,4.968-8.093C380.43,60.567,378.774,57.967,375.463,57.967"/>
<path fill="none" stroke="#818181" stroke-miterlimit="10" d="M368.839,57.838c1.515-2.015,3.7-3.022,6.624-3.022
	c2.924,0,5.109,1.007,6.588,2.989c1.516,1.983,2.255,4.616,2.255,7.898c0,6.338-2.854,11.278-8.843,11.278
	c-5.955,0-8.878-4.94-8.878-11.278C366.584,62.452,367.323,59.82,368.839,57.838z M375.463,57.967c-3.347,0-5.003,2.6-5.003,7.768
	c0,5.07,1.586,8.093,5.003,8.093c3.417,0,4.968-3.023,4.968-8.093C380.43,60.567,378.774,57.967,375.463,57.967z"/>
<polygon fill="#25397A" points="76.699,93.129 76.699,113.502 73.427,113.502 73.427,96.987 69.291,98.315 68.488,95.444 
	75.557,93.129 "/>
<path fill="#25397A" d="M83.646,95.66c1.327-1.914,3.241-2.871,5.803-2.871c2.563,0,4.476,0.957,5.772,2.84
	c1.328,1.883,1.976,4.383,1.976,7.501c0,6.019-2.5,10.711-7.748,10.711c-5.217,0-7.779-4.692-7.779-10.711
	C81.67,100.043,82.319,97.543,83.646,95.66 M89.449,95.783c-2.932,0-4.383,2.47-4.383,7.378c0,4.815,1.389,7.686,4.383,7.686
	c2.995,0,4.353-2.871,4.353-7.686C93.802,98.253,92.351,95.783,89.449,95.783"/>
<path fill="#25397A" d="M103.436,98.129c1.358,0,2.377,1.019,2.377,2.408c0,1.358-1.019,2.377-2.377,2.377
	c-1.358,0-2.438-1.019-2.438-2.377C100.998,99.179,102.078,98.129,103.436,98.129 M103.436,109.057c1.358,0,2.377,1.019,2.377,2.408
	c0,1.358-1.019,2.376-2.377,2.376c-1.358,0-2.438-1.018-2.438-2.376C100.998,110.106,102.078,109.057,103.436,109.057"/>
<path fill="#25397A" d="M115.537,113.841c-3.303,0-5.803-1.79-7.161-4.414l2.284-1.605c1.235,1.883,2.686,3.025,4.785,3.025
	c2.438,0,4.167-1.544,4.167-3.859c0-2.315-1.698-3.581-4.692-3.581h-2.254v-0.895l4.754-6.389h-7.593v-2.994h12.687v0.895
	l-4.939,6.667c1.512,0.247,2.777,0.926,3.827,2.006c1.05,1.081,1.574,2.501,1.574,4.261
	C122.976,111.094,119.55,113.841,115.537,113.841"/>
<path fill="#25397A" d="M128.351,95.66c1.327-1.914,3.241-2.871,5.803-2.871c2.563,0,4.476,0.957,5.772,2.84
	c1.328,1.883,1.976,4.383,1.976,7.501c0,6.019-2.5,10.711-7.748,10.711c-5.217,0-7.779-4.692-7.779-10.711
	C126.375,100.043,127.024,97.543,128.351,95.66 M134.154,95.783c-2.932,0-4.383,2.47-4.383,7.378c0,4.815,1.389,7.686,4.383,7.686
	c2.995,0,4.353-2.871,4.353-7.686C138.507,98.253,137.055,95.783,134.154,95.783"/>
<path fill="#25397A" d="M166.817,113.502h-3.025v-1.698c-1.111,1.327-2.778,2.037-4.847,2.037c-3.179,0-5.278-1.759-5.278-4.383
	s2.161-4.322,5.587-4.322h4.291v-0.987c0-2.1-1.173-3.242-3.241-3.242c-1.698,0-2.933,0.741-4.198,2.254l-1.883-1.914
	c1.512-2.192,3.765-3.242,6.389-3.242c3.735,0,6.205,2.254,6.205,6.329V113.502z M163.545,107.482h-3.89
	c-1.728,0-2.685,0.618-2.685,1.852c0,1.266,1.08,2.007,2.655,2.007c2.191,0,3.92-1.513,3.92-3.581V107.482z"/>
<polygon fill="#25397A" points="186.575,93.129 186.575,113.502 183.303,113.502 183.303,96.987 179.167,98.315 178.364,95.444 
	185.433,93.129 "/>
<path fill="#25397A" d="M197.906,113.841c-3.364,0-5.927-1.759-7.315-4.383l2.284-1.636c1.235,1.883,2.747,3.025,4.939,3.025
	c2.438,0,4.229-1.513,4.229-3.859c0-2.315-1.698-3.611-4.693-3.611h-4.692V93.129h11.607v2.932h-8.396v4.784
	c0.803-0.185,1.667-0.277,2.593-0.277c3.642,0,6.945,2.253,6.945,6.358C205.407,111.032,201.95,113.841,197.906,113.841"/>
<path fill="#25397A" d="M231.155,113.502h-3.241v-9.014c0-2.099-1.297-3.519-3.303-3.519c-2.006,0-3.457,1.451-3.457,3.519v9.014
	h-3.241V90.351h3.241v9.507c1.019-1.204,2.562-1.852,4.383-1.852c3.457,0,5.618,2.438,5.618,6.019V113.502z"/>
<path fill="#25397A" d="M244.339,101.216h-0.988c-2.562,0-4.445,1.513-4.445,4.198v8.088h-3.241V98.345h3.025v1.976
	c1.081-1.358,2.686-2.13,4.414-2.13c0.464,0,0.864,0.062,1.235,0.154V101.216z"/>
<path fill="#25397A" d="M247.674,108.871c1.327,1.389,2.654,2.161,4.26,2.161c1.389,0,2.438-0.587,2.438-1.698
	c0-0.895-0.648-1.266-2.13-1.883l-1.543-0.648c-2.686-1.111-3.951-2.285-3.951-4.414c0-2.717,2.253-4.384,5.34-4.384
	c2.191,0,3.92,0.772,5.248,2.346l-1.76,2.007c-0.957-0.988-2.222-1.544-3.549-1.544c-1.266,0-2.069,0.495-2.069,1.451
	c0,0.772,0.525,1.173,2.007,1.791l1.45,0.586c2.871,1.204,4.137,2.439,4.137,4.569c0,1.451-0.525,2.593-1.606,3.426
	c-1.08,0.803-2.407,1.204-4.012,1.204c-2.593,0-4.754-1.173-6.112-2.932L247.674,108.871z"/>
<rect x="64.264" y="129.035" fill="#FFFFFF" width="338.134" height="41.615"/>
<polygon fill="#253D90" points="67.769,135.122 87.192,135.122 87.192,139.373 72.513,139.373 72.513,146.937 83.567,146.937 
	83.567,151.055 72.513,151.055 72.513,160.408 87.729,160.408 87.729,164.66 67.769,164.66 "/>
<polygon fill="none" stroke="#253D90" stroke-miterlimit="10" points="67.769,135.122 87.192,135.122 87.192,139.373 
	72.513,139.373 72.513,146.937 83.567,146.937 83.567,151.055 72.513,151.055 72.513,160.408 87.729,160.408 87.729,164.66 
	67.769,164.66 "/>
<polygon fill="#253D90" points="116.594,142.686 105.987,165.152 104.376,165.152 93.724,142.686 98.737,142.686 105.181,157.231 
	111.581,142.686 "/>
<polygon fill="none" stroke="#253D90" stroke-miterlimit="10" points="116.594,142.686 105.987,165.152 104.376,165.152 
	93.724,142.686 98.737,142.686 105.181,157.231 111.581,142.686 "/>
<path fill="#253D90" d="M127.603,155.217c0.582,3.58,3.402,5.773,7.161,5.773c2.282,0,4.431-0.85,6.4-2.596l2.237,3.222
	c-2.506,2.372-5.415,3.536-8.771,3.536c-6.714,0-11.815-4.968-11.815-11.457c-0.134-6.31,5.146-11.636,11.367-11.502
	c5.818,0,10.159,4.341,10.159,10.07c0,0.94-0.134,1.924-0.358,2.954H127.603z M139.642,151.547
	c-0.044-3.356-2.551-5.371-5.639-5.371c-3.088,0-5.594,2.104-6.31,5.371H139.642z"/>
<path fill="none" stroke="#253D90" stroke-miterlimit="10" d="M127.603,155.217c0.582,3.58,3.402,5.773,7.161,5.773
	c2.282,0,4.431-0.85,6.4-2.596l2.237,3.222c-2.506,2.372-5.415,3.536-8.771,3.536c-6.714,0-11.815-4.968-11.815-11.457
	c-0.134-6.31,5.146-11.636,11.367-11.502c5.818,0,10.159,4.341,10.159,10.07c0,0.94-0.134,1.924-0.358,2.954H127.603z
	 M139.642,151.547c-0.044-3.356-2.551-5.371-5.639-5.371c-3.088,0-5.594,2.104-6.31,5.371H139.642z"/>
<path fill="#253D90" d="M172.266,164.66h-4.699v-13.113c0-3.043-1.925-5.102-4.789-5.102c-2.908,0-5.012,2.104-5.012,5.102v13.113
	h-4.699v-21.974h4.386v2.148c1.655-1.745,3.849-2.64,6.579-2.64c5.146,0,8.234,3.49,8.234,8.727V164.66z"/>
<path fill="none" stroke="#253D90" stroke-miterlimit="10" d="M172.266,164.66h-4.699v-13.113c0-3.043-1.925-5.102-4.789-5.102
	c-2.908,0-5.012,2.104-5.012,5.102v13.113h-4.699v-21.974h4.386v2.148c1.655-1.745,3.849-2.64,6.579-2.64
	c5.146,0,8.234,3.49,8.234,8.727V164.66z"/>
<path fill="#253D90" d="M195.225,164.66c-1.477,0.313-2.775,0.492-3.894,0.492c-5.057,0-8.1-2.506-8.1-7.653v-10.741h-3.581v-4.072
	h3.581v-5.774h4.744v5.774h6.534v4.072h-6.534v10.339c0,2.819,1.477,3.804,4.341,3.804c0.671,0,1.611-0.09,2.909-0.224V164.66z"/>
<path fill="none" stroke="#253D90" stroke-miterlimit="10" d="M195.225,164.66c-1.477,0.313-2.775,0.492-3.894,0.492
	c-5.057,0-8.1-2.506-8.1-7.653v-10.741h-3.581v-4.072h3.581v-5.774h4.744v5.774h6.534v4.072h-6.534v10.339
	c0,2.819,1.477,3.804,4.341,3.804c0.671,0,1.611-0.09,2.909-0.224V164.66z"/>
<path fill="#253D90" d="M213.529,142.194c6.399-0.135,11.815,5.235,11.68,11.457c0.135,6.22-5.281,11.635-11.68,11.501
	c-6.311,0.134-11.726-5.281-11.592-11.501C201.803,147.34,207.218,142.104,213.529,142.194 M213.573,146.49
	c-3.894,0-6.847,3.132-6.847,7.205s2.953,7.116,6.803,7.116c3.893,0,6.847-3.133,6.847-7.116
	C220.376,149.622,217.377,146.49,213.573,146.49"/>
<path fill="none" stroke="#253D90" stroke-miterlimit="10" d="M213.529,142.194c6.399-0.135,11.815,5.235,11.68,11.457
	c0.135,6.22-5.281,11.635-11.68,11.501c-6.311,0.134-11.726-5.281-11.592-11.501C201.803,147.34,207.218,142.104,213.529,142.194z
	 M213.573,146.49c-3.894,0-6.847,3.132-6.847,7.205s2.953,7.116,6.803,7.116c3.893,0,6.847-3.133,6.847-7.116
	C220.376,149.622,217.377,146.49,213.573,146.49z"/>
<path fill="#253D90" d="M263.83,134.63c8.369-0.134,15.709,6.802,15.53,15.261c0.179,8.458-7.161,15.395-15.53,15.261
	c-8.458,0.134-15.663-6.803-15.485-15.261C248.211,141.432,255.417,134.496,263.83,134.63 M263.875,138.971
	c-6.131,0-10.607,4.655-10.607,10.875c0,6.311,4.476,10.965,10.607,10.965c6.042,0,10.606-4.654,10.606-10.965
	C274.481,143.67,269.917,138.971,263.875,138.971"/>
<path fill="none" stroke="#253D90" stroke-miterlimit="10" d="M263.83,134.63c8.369-0.134,15.709,6.802,15.53,15.261
	c0.179,8.458-7.161,15.395-15.53,15.261c-8.458,0.134-15.663-6.803-15.485-15.261C248.211,141.432,255.417,134.496,263.83,134.63z
	 M263.875,138.971c-6.131,0-10.607,4.655-10.607,10.875c0,6.311,4.476,10.965,10.607,10.965c6.042,0,10.606-4.654,10.606-10.965
	C274.481,143.67,269.917,138.971,263.875,138.971z"/>
<path fill="#253D90" d="M307.285,164.66h-4.699v-13.113c0-3.043-1.925-5.102-4.789-5.102c-2.908,0-5.012,2.104-5.012,5.102v13.113
	h-4.699v-21.974h4.386v2.148c1.655-1.745,3.849-2.64,6.579-2.64c5.146,0,8.234,3.49,8.234,8.727V164.66z"/>
<path fill="none" stroke="#253D90" stroke-miterlimit="10" d="M307.285,164.66h-4.699v-13.113c0-3.043-1.925-5.102-4.789-5.102
	c-2.908,0-5.012,2.104-5.012,5.102v13.113h-4.699v-21.974h4.386v2.148c1.655-1.745,3.849-2.64,6.579-2.64
	c5.146,0,8.234,3.49,8.234,8.727V164.66z"/>
<rect x="317.175" y="131.094" fill="#253D90" width="4.699" height="33.565"/>
<rect x="317.175" y="131.094" fill="none" stroke="#253D90" stroke-miterlimit="10" width="4.699" height="33.565"/>
<path fill="#253D90" d="M334.404,131.363c1.745,0,3.177,1.388,3.177,3.133s-1.432,3.088-3.177,3.088
	c-1.79,0-3.223-1.343-3.223-3.088S332.614,131.363,334.404,131.363 M332.032,142.686h4.699v21.974h-4.699V142.686z"/>
<path fill="none" stroke="#253D90" stroke-miterlimit="10" d="M334.404,131.363c1.745,0,3.177,1.388,3.177,3.133
	s-1.432,3.088-3.177,3.088c-1.79,0-3.223-1.343-3.223-3.088S332.614,131.363,334.404,131.363z M332.032,142.686h4.699v21.974h-4.699
	V142.686z"/>
<path fill="#253D90" d="M366.09,164.66h-4.699v-13.113c0-3.043-1.925-5.102-4.789-5.102c-2.908,0-5.012,2.104-5.012,5.102v13.113
	h-4.699v-21.974h4.386v2.148c1.655-1.745,3.849-2.64,6.579-2.64c5.146,0,8.234,3.49,8.234,8.727V164.66z"/>
<path fill="none" stroke="#253D90" stroke-miterlimit="10" d="M366.09,164.66h-4.699v-13.113c0-3.043-1.925-5.102-4.789-5.102
	c-2.908,0-5.012,2.104-5.012,5.102v13.113h-4.699v-21.974h4.386v2.148c1.655-1.745,3.849-2.64,6.579-2.64
	c5.146,0,8.234,3.49,8.234,8.727V164.66z"/>
<path fill="#253D90" d="M379.38,155.217c0.582,3.58,3.402,5.773,7.161,5.773c2.282,0,4.431-0.85,6.4-2.596l2.237,3.222
	c-2.506,2.372-5.415,3.536-8.771,3.536c-6.714,0-11.815-4.968-11.815-11.457c-0.134-6.31,5.146-11.636,11.367-11.502
	c5.818,0,10.159,4.341,10.159,10.07c0,0.94-0.134,1.924-0.358,2.954H379.38z M391.419,151.547c-0.044-3.356-2.551-5.371-5.639-5.371
	s-5.594,2.104-6.31,5.371H391.419z"/>
<path fill="none" stroke="#253D90" stroke-miterlimit="10" d="M379.38,155.217c0.582,3.58,3.402,5.773,7.161,5.773
	c2.282,0,4.431-0.85,6.4-2.596l2.237,3.222c-2.506,2.372-5.415,3.536-8.771,3.536c-6.714,0-11.815-4.968-11.815-11.457
	c-0.134-6.31,5.146-11.636,11.367-11.502c5.818,0,10.159,4.341,10.159,10.07c0,0.94-0.134,1.924-0.358,2.954H379.38z
	 M391.419,151.547c-0.044-3.356-2.551-5.371-5.639-5.371s-5.594,2.104-6.31,5.371H391.419z"/>
<path fill="#374FA2" d="M25.481,8.397c-2.11-0.015-3.807-1.907-3.791-4.226C21.707,1.853,23.43-0.016,25.54,0
	c2.11,0.014,3.807,1.906,3.791,4.225C29.314,6.544,27.591,8.412,25.481,8.397"/>
<path fill="#374FA2" d="M25.285,36.198c-2.11-0.015-3.807-1.906-3.791-4.225c0.017-2.319,1.74-4.187,3.85-4.172
	c2.11,0.015,3.807,1.906,3.791,4.226C29.118,34.345,27.395,36.213,25.285,36.198"/>
<path fill="#374FA2" d="M25.09,64c-2.11-0.015-3.807-1.907-3.791-4.226c0.017-2.318,1.74-4.186,3.85-4.171
	c2.109,0.015,3.807,1.906,3.791,4.225C28.923,62.147,27.199,64.015,25.09,64"/>
<path fill="#374FA2" d="M24.894,91.802c-2.11-0.015-3.807-1.907-3.791-4.226c0.017-2.318,1.74-4.186,3.85-4.171
	c2.11,0.015,3.807,1.906,3.791,4.225C28.727,89.949,27.004,91.817,24.894,91.802"/>
<path fill="#374FA2" d="M24.698,119.604c-2.11-0.015-3.807-1.907-3.791-4.226c0.017-2.318,1.74-4.186,3.85-4.171
	c2.11,0.014,3.807,1.906,3.791,4.225C28.531,117.751,26.808,119.619,24.698,119.604"/>
<path fill="#374FA2" d="M24.503,147.405c-2.11-0.015-3.807-1.907-3.791-4.226c0.017-2.318,1.74-4.186,3.85-4.171
	c2.11,0.014,3.807,1.906,3.791,4.225C28.336,145.552,26.613,147.42,24.503,147.405"/>
<path fill="#374FA2" d="M24.307,175.207c-2.11-0.015-3.807-1.907-3.791-4.226c0.017-2.318,1.74-4.187,3.85-4.171
	c2.11,0.014,3.807,1.906,3.791,4.225C28.14,173.354,26.417,175.222,24.307,175.207"/>
<path fill="#374FA2" d="M24.111,203.009c-2.109-0.015-3.807-1.907-3.791-4.226c0.017-2.318,1.741-4.187,3.851-4.171
	c2.109,0.014,3.806,1.906,3.79,4.225C27.944,201.156,26.221,203.024,24.111,203.009"/>
<path fill="#374FA2" d="M23.916,230.811c-2.11-0.015-3.807-1.907-3.791-4.226c0.017-2.319,1.74-4.187,3.85-4.171
	c2.11,0.014,3.807,1.906,3.791,4.225C27.749,228.958,26.026,230.826,23.916,230.811"/>
<path fill="#374FA2" d="M5.356,22.341c-2.11-0.015-3.807-1.907-3.791-4.226c0.017-2.318,1.74-4.187,3.85-4.171
	c2.11,0.014,3.807,1.906,3.791,4.225C9.189,20.489,7.466,22.356,5.356,22.341"/>
<path fill="#374FA2" d="M5.16,50.143c-2.109-0.015-3.807-1.907-3.791-4.226c0.017-2.318,1.741-4.187,3.85-4.171
	c2.11,0.014,3.807,1.906,3.791,4.225C8.993,48.29,7.27,50.158,5.16,50.143"/>
<path fill="#374FA2" d="M4.965,77.945c-2.11-0.015-3.807-1.907-3.791-4.226c0.017-2.319,1.74-4.187,3.85-4.171
	c2.11,0.014,3.807,1.906,3.791,4.225C8.798,76.092,7.075,77.96,4.965,77.945"/>
<path fill="#374FA2" d="M4.769,105.746c-2.11-0.015-3.807-1.906-3.791-4.226c0.017-2.318,1.74-4.186,3.85-4.171
	c2.11,0.015,3.807,1.906,3.791,4.225C8.602,103.893,6.879,105.761,4.769,105.746"/>
<path fill="#374FA2" d="M4.573,133.548c-2.109-0.015-3.807-1.907-3.791-4.226c0.017-2.318,1.741-4.186,3.85-4.171
	c2.11,0.015,3.807,1.906,3.791,4.225C8.406,131.695,6.683,133.563,4.573,133.548"/>
<path fill="#374FA2" d="M4.378,161.35c-2.11-0.015-3.807-1.907-3.791-4.226c0.017-2.318,1.74-4.186,3.85-4.171
	c2.11,0.015,3.807,1.906,3.791,4.225C8.211,159.497,6.488,161.365,4.378,161.35"/>
<path fill="#374FA2" d="M4.182,189.151c-2.11-0.015-3.807-1.907-3.791-4.226c0.017-2.318,1.74-4.186,3.85-4.171
	c2.11,0.014,3.807,1.906,3.791,4.225C8.015,187.299,6.292,189.166,4.182,189.151"/>
<path fill="#374FA2" d="M3.987,216.953c-2.11-0.015-3.807-1.907-3.791-4.226c0.017-2.318,1.74-4.187,3.85-4.171
	c2.109,0.014,3.807,1.906,3.791,4.225C7.82,215.1,6.096,216.968,3.987,216.953"/>
<path fill="#374FA2" d="M3.791,244.755c-2.11-0.015-3.807-1.907-3.791-4.226c0.017-2.318,1.74-4.187,3.85-4.171
	c2.11,0.014,3.807,1.906,3.791,4.225C7.624,242.902,5.901,244.77,3.791,244.755"/>
</svg>
