<?xml version="1.0" encoding="utf-8"?>
<!-- Generator: Adobe Illustrator 17.0.0, SVG Export Plug-In . SVG Version: 6.00 Build 0)  -->
<!DOCTYPE svg PUBLIC "-//W3C//DTD SVG 1.1//EN" "http://www.w3.org/Graphics/SVG/1.1/DTD/svg11.dtd">
<svg version="1.1" id="Layer_1" xmlns="http://www.w3.org/2000/svg" xmlns:xlink="http://www.w3.org/1999/xlink" x="0px" y="0px"
	 width="845.94px" height="448.129px" viewBox="0 0 845.94 448.129" enable-background="new 0 0 845.94 448.129"
	 xml:space="preserve">
<path fill="#374FA2" d="M820.992,440.136c2.208,0,3.997,1.789,3.997,3.997c0,2.207-1.789,3.996-3.997,3.996
	c-2.207,0-3.997-1.789-3.997-3.996C816.995,441.925,818.785,440.136,820.992,440.136"/>
<path fill="#374FA2" d="M820.992,413.673c2.208,0,3.997,1.789,3.997,3.996c0,2.207-1.789,3.997-3.997,3.997
	c-2.207,0-3.997-1.79-3.997-3.997C816.995,415.462,818.785,413.673,820.992,413.673"/>
<path fill="#374FA2" d="M820.992,387.209c2.208,0,3.997,1.79,3.997,3.997s-1.789,3.996-3.997,3.996
	c-2.207,0-3.997-1.789-3.997-3.996S818.785,387.209,820.992,387.209"/>
<path fill="#374FA2" d="M820.992,360.746c2.208,0,3.997,1.789,3.997,3.996c0,2.208-1.789,3.997-3.997,3.997
	c-2.207,0-3.997-1.789-3.997-3.997C816.995,362.535,818.785,360.746,820.992,360.746"/>
<path fill="#374FA2" d="M820.992,334.282c2.208,0,3.997,1.79,3.997,3.997s-1.789,3.996-3.997,3.996
	c-2.207,0-3.997-1.789-3.997-3.996S818.785,334.282,820.992,334.282"/>
<path fill="#374FA2" d="M820.992,307.819c2.208,0,3.997,1.789,3.997,3.996c0,2.208-1.789,3.997-3.997,3.997
	c-2.207,0-3.997-1.789-3.997-3.997C816.995,309.608,818.785,307.819,820.992,307.819"/>
<path fill="#374FA2" d="M820.992,281.356c2.208,0,3.997,1.79,3.997,3.997s-1.789,3.996-3.997,3.996
	c-2.207,0-3.997-1.789-3.997-3.996S818.785,281.356,820.992,281.356"/>
<path fill="#374FA2" d="M820.992,254.893c2.208,0,3.997,1.789,3.997,3.996c0,2.208-1.789,3.997-3.997,3.997
	c-2.207,0-3.997-1.789-3.997-3.997C816.995,256.682,818.785,254.893,820.992,254.893"/>
<path fill="#374FA2" d="M820.992,228.429c2.208,0,3.997,1.79,3.997,3.997s-1.789,3.997-3.997,3.997c-2.207,0-3.997-1.79-3.997-3.997
	S818.785,228.429,820.992,228.429"/>
<path fill="#374FA2" d="M841.943,426.729c2.207,0,3.997,1.789,3.997,3.997c0,2.207-1.79,3.996-3.997,3.996
	c-2.208,0-3.997-1.789-3.997-3.996C837.946,428.518,839.735,426.729,841.943,426.729"/>
<path fill="#374FA2" d="M841.943,400.266c2.207,0,3.997,1.789,3.997,3.996c0,2.207-1.79,3.997-3.997,3.997
	c-2.208,0-3.997-1.79-3.997-3.997C837.946,402.055,839.735,400.266,841.943,400.266"/>
<path fill="#374FA2" d="M841.943,373.802c2.207,0,3.997,1.789,3.997,3.997c0,2.207-1.79,3.996-3.997,3.996
	c-2.208,0-3.997-1.789-3.997-3.996C837.946,375.591,839.735,373.802,841.943,373.802"/>
<path fill="#374FA2" d="M841.943,347.339c2.207,0,3.997,1.789,3.997,3.996c0,2.207-1.79,3.997-3.997,3.997
	c-2.208,0-3.997-1.79-3.997-3.997C837.946,349.128,839.735,347.339,841.943,347.339"/>
<path fill="#374FA2" d="M841.943,320.875c2.207,0,3.997,1.79,3.997,3.997s-1.79,3.996-3.997,3.996c-2.208,0-3.997-1.789-3.997-3.996
	S839.735,320.875,841.943,320.875"/>
<path fill="#374FA2" d="M841.943,294.412c2.207,0,3.997,1.789,3.997,3.996c0,2.208-1.79,3.997-3.997,3.997
	c-2.208,0-3.997-1.789-3.997-3.997C837.946,296.201,839.735,294.412,841.943,294.412"/>
<path fill="#374FA2" d="M841.943,267.948c2.207,0,3.997,1.79,3.997,3.997s-1.79,3.996-3.997,3.996c-2.208,0-3.997-1.789-3.997-3.996
	S839.735,267.948,841.943,267.948"/>
<path fill="#374FA2" d="M841.943,241.485c2.207,0,3.997,1.789,3.997,3.996c0,2.208-1.79,3.997-3.997,3.997
	c-2.208,0-3.997-1.789-3.997-3.997C837.946,243.274,839.735,241.485,841.943,241.485"/>
<path fill="#374FA2" d="M841.943,215.022c2.207,0,3.997,1.79,3.997,3.997s-1.79,3.996-3.997,3.996c-2.208,0-3.997-1.789-3.997-3.996
	S839.735,215.022,841.943,215.022"/>
<g opacity="0.2">
	<g>
		<defs>
			<rect id="SVGID_1_" x="36.362" y="71.474" width="150.641" height="150.64"/>
		</defs>
		<clipPath id="SVGID_2_">
			<use xlink:href="#SVGID_1_"  overflow="visible"/>
		</clipPath>
		<path clip-path="url(#SVGID_2_)" fill="#2B3F99" d="M187.004,146.796c0,41.599-33.722,75.321-75.321,75.321
			c-41.598,0-75.32-33.722-75.32-75.321c0-41.598,33.722-75.32,75.32-75.32C153.282,71.476,187.004,105.198,187.004,146.796"/>
	</g>
</g>
<g opacity="0.2">
	<g>
		<defs>
			<rect id="SVGID_3_" x="0" y="45.624" width="152.641" height="152.64"/>
		</defs>
		<clipPath id="SVGID_4_">
			<use xlink:href="#SVGID_3_"  overflow="visible"/>
		</clipPath>
		
			<circle clip-path="url(#SVGID_4_)" fill="none" stroke="#2B3F99" stroke-width="2" stroke-miterlimit="10" cx="76.32" cy="121.948" r="75.321"/>
	</g>
</g>
<g>
	<rect x="110.83" y="371.819" fill="#E97E24" width="636.486" height="75.583"/>
	<path fill="#FFFFFF" d="M149.457,401.735l-1.421,10.55h6.425v6.086h-7.236l-1.488,10.956h-5.883l1.487-10.956h-11.564
		l-1.488,10.956h-5.883l1.488-10.956h-5.748v-6.086h6.559l1.353-10.55h-6.357v-6.086h7.168l1.488-10.956h6.019l-1.488,10.956h11.429
		l1.488-10.956h5.951l-1.488,10.956h5.681v6.086H149.457z M142.085,412.488l1.488-10.956h-11.497l-1.487,10.956H142.085z"/>
	<polygon fill="#FFFFFF" points="201.123,384.693 181.443,430.071 179.009,430.071 159.33,384.693 167.377,384.693 180.227,415.734 
		193.075,384.693 	"/>
	<path fill="#FFFFFF" d="M219.044,395.378c9.671-0.203,17.853,7.912,17.65,17.312c0.203,9.4-7.979,17.583-17.65,17.381
		c-9.536,0.202-17.719-7.981-17.516-17.381C201.325,403.155,209.508,395.243,219.044,395.378 M219.111,401.87
		c-5.883,0-10.347,4.734-10.347,10.888s4.464,10.753,10.28,10.753c5.883,0,10.346-4.734,10.346-10.753
		C229.39,406.604,224.86,401.87,219.111,401.87"/>
	<rect x="244.809" y="378.606" fill="#FFFFFF" width="7.101" height="50.72"/>
	<polygon fill="#FFFFFF" points="292.891,396.121 276.863,430.07 274.429,430.07 258.334,396.121 265.908,396.121 275.646,418.1 
		285.317,396.121 	"/>
	<path fill="#FFFFFF" d="M324.338,429.327h-6.627v-3.72c-2.435,2.908-6.086,4.464-10.617,4.464c-6.966,0-11.565-3.855-11.565-9.604
		c0-5.748,4.734-9.468,12.241-9.468h9.4v-2.164c0-4.598-2.57-7.1-7.101-7.1c-3.719,0-6.424,1.623-9.197,4.936l-4.125-4.192
		c3.314-4.802,8.25-7.101,13.998-7.101c8.183,0,13.593,4.937,13.593,13.864V429.327z M317.17,416.139h-8.521
		c-3.787,0-5.883,1.353-5.883,4.058c0,2.773,2.366,4.396,5.815,4.396c4.802,0,8.589-3.314,8.589-7.845V416.139z"/>
	<path fill="#FFFFFF" d="M384.053,429.326h-7.169v-19.747c0-4.666-2.637-7.71-6.897-7.71c-4.329,0-7.304,3.111-7.304,7.372v20.085
		h-7.101v-19.747c0-4.599-2.705-7.71-6.966-7.71c-4.328,0-7.303,3.111-7.303,7.71v19.747h-7.101v-33.205h6.627v3.111
		c2.367-2.434,5.613-3.855,9.603-3.855c4.599,0,8.115,1.962,10.077,5.208c2.434-3.179,6.559-5.208,11.225-5.208
		c7.642,0,12.309,5.275,12.309,13.187V429.326z"/>
	<path fill="#FFFFFF" d="M409.344,395.378c9.671-0.203,17.854,7.912,17.651,17.312c0.203,9.4-7.98,17.583-17.651,17.381
		c-9.536,0.202-17.718-7.981-17.515-17.381C391.626,403.155,399.808,395.243,409.344,395.378 M409.412,401.87
		c-5.884,0-10.347,4.734-10.347,10.888s4.463,10.753,10.279,10.753c5.883,0,10.347-4.734,10.347-10.753
		C419.691,406.604,415.16,401.87,409.412,401.87"/>
	<path fill="#FFFFFF" d="M436.056,419.182c2.908,3.043,5.816,4.734,9.333,4.734c3.042,0,5.342-1.285,5.342-3.72
		c0-1.961-1.42-2.772-4.666-4.125l-3.382-1.42c-5.883-2.434-8.656-5.005-8.656-9.671c0-5.951,4.937-9.603,11.699-9.603
		c4.802,0,8.589,1.691,11.497,5.14l-3.855,4.396c-2.096-2.164-4.869-3.382-7.776-3.382c-2.773,0-4.532,1.082-4.532,3.179
		c0,1.69,1.15,2.57,4.396,3.922l3.179,1.285c6.289,2.638,9.061,5.343,9.061,10.009c0,3.178-1.149,5.68-3.515,7.506
		c-2.368,1.759-5.276,2.638-8.792,2.638c-5.681,0-10.415-2.57-13.391-6.425L436.056,419.182z"/>
	<path fill="#FFFFFF" d="M493.132,421.887h-20.086l-3.178,7.439h-7.642l19.679-45.378h2.435l19.679,45.378h-7.709L493.132,421.887z
		 M483.123,397.271l-7.507,18.462h14.945L483.123,397.271z"/>
	<path fill="#FFFFFF" d="M511.119,384.693h13.999c14.608,0,24.278,9.062,24.278,22.249c0,12.984-9.739,22.385-24.278,22.385h-13.999
		V384.693z M525.05,422.902c10.348,0,16.975-6.627,16.975-15.96c0-9.468-6.56-15.757-16.975-15.757h-6.763v31.717H525.05z"/>
	<path fill="#FFFFFF" d="M562.582,415.057c0.879,5.41,5.139,8.724,10.82,8.724c3.449,0,6.695-1.285,9.671-3.922l3.381,4.869
		c-3.787,3.584-8.183,5.343-13.255,5.343c-10.144,0-17.854-7.507-17.854-17.313c-0.202-9.536,7.778-17.583,17.178-17.38
		c8.791,0,15.351,6.56,15.351,15.216c0,1.42-0.203,2.908-0.541,4.463H562.582z M580.773,409.512
		c-0.067-5.072-3.854-8.115-8.521-8.115c-4.666,0-8.453,3.178-9.535,8.115H580.773z"/>
	<path fill="#FFFFFF" d="M614.249,430.071c-4.869,0-9.13-1.894-11.633-5.343v4.599h-6.627v-50.721h7.101v21.573
		c2.503-3.043,6.492-4.801,11.09-4.801c9.401,0,16.299,7.506,16.299,17.38C630.479,422.564,623.513,430.071,614.249,430.071
		 M613.031,401.87c-5.207,0-10.009,3.584-10.009,10.888c0,7.236,4.802,10.82,10.009,10.82c5.748,0,10.144-4.531,10.144-10.888
		C623.175,406.333,618.712,401.87,613.031,401.87"/>
	<path fill="#FFFFFF" d="M665.036,429.327h-6.628v-3.72c-2.435,2.908-6.087,4.464-10.617,4.464c-6.966,0-11.565-3.855-11.565-9.604
		c0-5.748,4.734-9.468,12.241-9.468h9.4v-2.164c0-4.598-2.569-7.1-7.101-7.1c-3.719,0-6.424,1.623-9.197,4.936l-4.125-4.192
		c3.314-4.802,8.25-7.101,13.998-7.101c8.184,0,13.594,4.937,13.594,13.864V429.327z M657.867,416.139h-8.521
		c-3.787,0-5.883,1.353-5.883,4.058c0,2.773,2.366,4.396,5.815,4.396c4.802,0,8.589-3.314,8.589-7.845V416.139z"/>
	<path fill="#FFFFFF" d="M694.656,429.326c-2.231,0.474-4.192,0.744-5.884,0.744c-7.641,0-12.24-3.787-12.24-11.564v-16.231h-5.41
		v-6.154h5.41v-8.724h7.168v8.724h9.874v6.154H683.7v15.622c0,4.261,2.232,5.748,6.56,5.748c1.014,0,2.435-0.135,4.396-0.338
		V429.326z"/>
	<path fill="#FFFFFF" d="M705.408,379.011c2.638,0,4.802,2.097,4.802,4.734c0,2.638-2.164,4.667-4.802,4.667
		c-2.705,0-4.869-2.029-4.869-4.667C700.539,381.109,702.703,379.011,705.408,379.011 M701.824,396.121h7.101v33.205h-7.101V396.121
		z"/>
	<path fill="#FFFFFF" d="M738.206,402.411h-2.164c-5.613,0-9.738,3.314-9.738,9.197v17.719h-7.101v-33.206h6.628v4.329
		c2.366-2.976,5.883-4.666,9.67-4.666c1.015,0,1.893,0.135,2.705,0.337V402.411z"/>
</g>
<g>
	<path fill="#253D90" d="M117.271,112.509c9.192,0,17.128,4.321,21.528,11.157l-4.557,3.614c-4.007-5.736-9.742-9.114-16.892-9.114
		c-11.707,0-20.663,9.114-20.663,21.135s8.956,21.134,20.663,21.134c7.15,0,12.885-3.378,16.892-9.113l4.557,3.613
		c-4.321,6.836-12.336,11.157-21.528,11.157c-14.692,0.236-27.263-11.942-26.948-26.791
		C90.008,124.451,102.579,112.273,117.271,112.509"/>
	<path fill="#253D90" d="M173.21,112.509c14.536-0.236,27.264,11.943,26.949,26.792c0.315,14.849-12.413,27.027-26.949,26.791
		c-14.692,0.315-27.184-12.099-26.869-26.791C146.026,124.452,158.518,112.273,173.21,112.509 M173.289,118.166
		c-11.707,0-20.584,9.035-20.584,21.056s8.877,21.214,20.584,21.214c11.393,0.157,20.742-9.35,20.506-21.214
		C194.031,127.516,184.682,117.93,173.289,118.166"/>
	<polygon fill="#253D90" points="258.612,112.509 258.612,165.228 252.484,165.228 252.484,128.065 235.906,150.536 
		233.706,150.536 217.049,127.908 217.049,165.228 210.921,165.228 210.921,112.509 213.121,112.509 234.727,142.443 
		256.49,112.509 	"/>
	<path fill="#253D90" d="M296.243,112.509c14.536-0.236,27.264,11.943,26.949,26.792c0.315,14.849-12.413,27.027-26.949,26.791
		c-14.692,0.315-27.184-12.099-26.869-26.791C269.059,124.452,281.551,112.273,296.243,112.509 M296.322,118.166
		c-11.707,0-20.584,9.035-20.584,21.056s8.877,21.214,20.584,21.214c11.393,0.157,20.742-9.35,20.506-21.214
		C317.064,127.516,307.715,117.93,296.322,118.166"/>
	<path fill="#253D90" d="M355.167,113.373h16.264c16.97,0,28.205,10.528,28.205,25.849c0,15.085-11.313,26.006-28.205,26.006
		h-16.264V113.373z M371.352,157.764c12.021,0,19.72-7.7,19.72-18.542c0-11-7.621-18.306-19.72-18.306h-7.857v36.848H371.352z"/>
	<rect x="409.376" y="113.373" fill="#253D90" width="8.328" height="51.854"/>
	<path fill="#253D90" d="M432.788,150.379c3.457,5.028,7.621,8.25,13.592,8.25c5.343,0,8.957-2.829,8.957-7.229
		c0-3.692-2.2-5.264-7.621-7.778l-5.736-2.671c-7.542-3.457-12.099-7.464-12.099-14.378c0-8.486,7.385-14.064,16.342-14.064
		c7.307,0,13.513,3.693,16.735,9.271l-5.814,4.479c-2.75-4.086-6.522-6.286-10.921-6.286c-4.4,0-7.857,2.2-7.857,6.286
		c0.315,4.085,2.121,4.792,7.228,7.385l5.814,2.672c8.407,3.849,12.414,7.935,12.414,14.77c0,9.035-7.386,15.006-17.364,15.006
		c-8.485,0-15.556-4.242-19.563-11.235L432.788,150.379z"/>
	<polygon fill="#253D90" points="486.528,120.837 469.086,120.837 469.086,113.373 512.377,113.373 512.377,120.837 
		494.856,120.837 494.856,165.228 486.528,165.228 	"/>
	<path fill="#253D90" d="M544.038,112.509c14.692-0.236,27.577,11.942,27.263,26.791c0.314,14.85-12.571,27.028-27.263,26.792
		c-14.85,0.236-27.499-11.942-27.185-26.792C516.617,124.451,529.267,112.273,544.038,112.509 M544.116,120.13
		c-10.764,0-18.62,8.171-18.62,19.092c0,11.078,7.856,19.249,18.62,19.249c10.607,0,18.621-8.171,18.621-19.249
		C562.737,128.38,554.723,120.13,544.116,120.13"/>
	<path fill="#253D90" d="M613.725,165.228l-14.77-20.035h-9.507v20.035h-8.328v-51.855h18.935c10.449,0,17.599,6.521,17.599,15.871
		c0,6.835-3.771,12.178-9.978,14.613l15.556,21.371H613.725z M589.448,137.808h10.45c5.735,0,9.192-3.457,9.192-8.485
		c0-5.107-3.457-8.564-9.192-8.564h-10.45V137.808z"/>
	<path fill="#253D90" d="M632.739,150.379c3.457,5.028,7.621,8.25,13.592,8.25c5.343,0,8.957-2.829,8.957-7.229
		c0-3.692-2.2-5.264-7.621-7.778l-5.736-2.671c-7.542-3.457-12.099-7.464-12.099-14.378c0-8.486,7.385-14.064,16.342-14.064
		c7.307,0,13.513,3.693,16.735,9.271l-5.814,4.479c-2.75-4.086-6.522-6.286-10.921-6.286c-4.4,0-7.857,2.2-7.857,6.286
		c0.315,4.085,2.121,4.792,7.228,7.385l5.814,2.672c8.407,3.849,12.414,7.935,12.414,14.77c0,9.035-7.386,15.006-17.364,15.006
		c-8.485,0-15.556-4.242-19.563-11.235L632.739,150.379z"/>
	<rect x="674.299" y="113.373" fill="#253D90" width="8.328" height="51.854"/>
	<path fill="#253D90" d="M719.553,112.509c14.692-0.236,27.577,11.942,27.263,26.791c0.314,14.849-12.571,27.028-27.263,26.792
		c-14.85,0.236-27.499-11.943-27.185-26.792C692.134,124.451,704.782,112.273,719.553,112.509 M719.631,120.13
		c-10.764,0-18.62,8.171-18.62,19.092c0,11.078,7.856,19.249,18.62,19.249c10.607,0,18.621-8.171,18.621-19.249
		C738.252,128.379,730.239,120.13,719.631,120.13 M722.618,93.731h10.057v1.493l-10.136,13.121h-6.128L722.618,93.731z"/>
	<polygon fill="#253D90" points="799.377,113.373 799.377,166.092 796.549,166.092 764.965,130.108 764.965,165.227 
		756.636,165.227 756.636,112.509 759.543,112.509 791.049,148.335 791.049,113.373 	"/>
</g>
<g>
	<path fill="#253D90" d="M146.591,206.606h16.263c16.971,0,28.206,10.528,28.206,25.849c0,15.085-11.313,26.006-28.206,26.006
		h-16.263V206.606z M162.776,250.997c12.021,0,19.721-7.7,19.721-18.542c0-11-7.621-18.306-19.721-18.306h-7.856v36.848H162.776z"/>
	<polygon fill="#253D90" points="200.801,206.607 234.899,206.607 234.899,214.071 209.129,214.071 209.129,227.349 
		228.535,227.349 228.535,234.577 209.129,234.577 209.129,250.998 235.842,250.998 235.842,258.461 200.801,258.461 	"/>
	<polygon fill="#253D90" points="294.609,205.742 294.609,258.461 286.281,258.461 286.281,225.934 271.431,245.419 
		268.603,245.419 253.675,225.855 253.675,258.461 245.347,258.461 245.347,205.742 248.254,205.742 270.017,234.733 
		291.78,205.742 	"/>
	<path fill="#253D90" d="M331.534,205.742c14.692-0.236,27.577,11.942,27.263,26.791c0.314,14.85-12.571,27.028-27.263,26.792
		c-14.849,0.236-27.498-11.942-27.185-26.792C304.114,217.684,316.763,205.506,331.534,205.742 M331.613,213.363
		c-10.764,0-18.621,8.171-18.621,19.092c0,11.078,7.857,19.249,18.621,19.249c10.606,0,18.62-8.171,18.62-19.249
		C350.233,221.613,342.219,213.363,331.613,213.363"/>
	<path fill="#253D90" d="M392.737,205.742c9.507,0,17.756,4.635,22.234,11.942l-6.285,4.636c-3.693-5.736-9.035-8.957-15.871-8.957
		c-10.606,0-18.699,8.171-18.699,19.171c0,10.999,8.093,19.17,18.699,19.17c6.836,0,12.178-3.221,15.871-8.957l6.285,4.636
		c-4.399,7.307-12.571,11.942-22.234,11.942c-14.771,0.236-27.577-11.942-27.264-26.791
		C365.16,217.684,377.966,205.506,392.737,205.742"/>
	<path fill="#253D90" d="M457.398,258.461l-14.771-20.035h-9.506v20.035h-8.328v-51.855h18.934c10.45,0,17.599,6.521,17.599,15.871
		c0,6.835-3.77,12.178-9.977,14.613l15.555,21.371H457.398z M433.121,231.041h10.449c5.736,0,9.193-3.457,9.193-8.485
		c0-5.107-3.457-8.564-9.193-8.564h-10.449V231.041z"/>
	<path fill="#253D90" d="M505.323,249.818h-23.335l-3.693,8.643h-8.878l22.864-52.719h2.828l22.863,52.719h-8.957L505.323,249.818z
		 M493.695,221.219l-8.721,21.45h17.363L493.695,221.219z M496.68,186.964h10.057v1.493l-10.135,13.121h-6.129L496.68,186.964z"/>
	<polygon fill="#253D90" points="538.241,214.07 520.799,214.07 520.799,206.606 564.09,206.606 564.09,214.07 546.569,214.07 
		546.569,258.461 538.241,258.461 	"/>
	<rect x="571.709" y="206.606" fill="#253D90" width="8.328" height="51.854"/>
	<path fill="#253D90" d="M617.042,205.742c9.507,0,17.756,4.635,22.234,11.942l-6.285,4.636c-3.693-5.736-9.035-8.957-15.871-8.957
		c-10.606,0-18.699,8.171-18.699,19.171c0,10.999,8.093,19.17,18.699,19.17c6.836,0,12.178-3.221,15.871-8.957l6.285,4.636
		c-4.399,7.307-12.571,11.942-22.234,11.942c-14.771,0.236-27.577-11.942-27.264-26.791
		C589.464,217.684,602.27,205.506,617.042,205.742"/>
	<path fill="#253D90" d="M680.208,249.819h-23.335l-3.692,8.642h-8.878l22.863-52.719h2.828l22.863,52.719h-8.957L680.208,249.819z
		 M668.581,221.22l-8.721,21.449h17.364L668.581,221.22z"/>
	<path fill="#253D90" d="M705.505,219.335c3.457,0,6.05,2.592,6.05,6.127c0,3.457-2.593,6.05-6.05,6.05
		c-3.457,0-6.207-2.593-6.207-6.05S702.048,219.335,705.505,219.335 M705.505,247.147c3.457,0,6.05,2.593,6.05,6.128
		c0,3.457-2.593,6.05-6.05,6.05c-3.457,0-6.207-2.593-6.207-6.05C699.298,249.818,702.048,247.147,705.505,247.147"/>
</g>
<g>
	<path fill="#253D90" d="M140.392,324.485c2.947-2.665,3.968-3.798,3.968-5.555c0-0.624-0.057-1.077-0.171-1.474h5.159
		c0.397,0.907,0.567,1.757,0.567,2.55c0,2.552-1.531,4.195-4.535,6.916c-2.777,2.551-3.911,4.082-3.911,6.179
		c0,2.778,2.097,4.705,4.648,4.705c2.551,0,4.365-1.644,5.499-4.875l4.931,2.154c-1.53,5.272-5.385,8.22-10.6,8.22
		c-5.839,0-10.6-4.082-10.6-9.864C135.347,329.757,137.047,327.376,140.392,324.485 M146.457,304.021
		c2.494,0,4.421,1.871,4.421,4.421c0,2.495-1.927,4.422-4.421,4.422c-2.438,0-4.421-1.927-4.421-4.422
		C142.036,305.948,143.963,304.021,146.457,304.021"/>
	<path fill="none" stroke="#253D90" stroke-miterlimit="10" d="M140.392,324.485c2.947-2.665,3.968-3.798,3.968-5.555
		c0-0.624-0.057-1.077-0.171-1.474h5.159c0.397,0.907,0.567,1.757,0.567,2.55c0,2.552-1.531,4.195-4.535,6.916
		c-2.777,2.551-3.911,4.082-3.911,6.179c0,2.778,2.097,4.705,4.648,4.705c2.551,0,4.365-1.644,5.499-4.875l4.931,2.154
		c-1.53,5.272-5.385,8.22-10.6,8.22c-5.839,0-10.6-4.082-10.6-9.864C135.347,329.757,137.047,327.376,140.392,324.485z
		 M146.457,304.021c2.494,0,4.421,1.871,4.421,4.421c0,2.495-1.927,4.422-4.421,4.422c-2.438,0-4.421-1.927-4.421-4.422
		C142.036,305.948,143.963,304.021,146.457,304.021z"/>
	<path fill="#253D90" d="M217.882,343.872c-2.211,0.397-4.308,0.623-6.292,0.623c-9.977,0-18.367-4.365-24.205-12.584
		c-2.155,0.793-4.422,1.19-6.86,1.19c-10.713,0.17-19.84-8.616-19.613-19.33c-0.17-10.714,8.957-19.5,19.613-19.33
		c10.601-0.17,19.897,8.616,19.671,19.33c0,6.349-2.948,11.961-7.88,15.532c5.159,6.802,11.564,10.033,20.237,10.033
		c0.964,0,2.778-0.056,5.329-0.226V343.872z M194.017,313.771c0-7.936-5.782-13.832-13.492-13.832
		c-7.652,0-13.378,5.896-13.378,13.775c0,7.993,5.669,13.889,13.435,13.889C188.235,327.603,194.017,321.707,194.017,313.771"/>
	<path fill="none" stroke="#253D90" stroke-miterlimit="10" d="M217.882,343.872c-2.211,0.397-4.308,0.623-6.292,0.623
		c-9.977,0-18.367-4.365-24.205-12.584c-2.155,0.793-4.422,1.19-6.86,1.19c-10.713,0.17-19.84-8.616-19.613-19.33
		c-0.17-10.714,8.957-19.5,19.613-19.33c10.601-0.17,19.897,8.616,19.671,19.33c0,6.349-2.948,11.961-7.88,15.532
		c5.159,6.802,11.564,10.033,20.237,10.033c0.964,0,2.778-0.056,5.329-0.226V343.872z M194.017,313.771
		c0-7.936-5.782-13.832-13.492-13.832c-7.652,0-13.378,5.896-13.378,13.775c0,7.993,5.669,13.889,13.435,13.889
		C188.235,327.603,194.017,321.707,194.017,313.771z"/>
	<path fill="#253D90" d="M206.715,304.645h5.895v16.609c0,3.855,2.665,6.349,6.293,6.349c3.458,0,6.122-2.494,6.122-6.349v-16.609
		h5.952v16.156c0,7.482-5.272,12.301-12.074,12.301c-6.973,0-12.188-4.819-12.188-12.301V304.645z"/>
	<path fill="none" stroke="#253D90" stroke-miterlimit="10" d="M206.715,304.645h5.895v16.609c0,3.855,2.665,6.349,6.293,6.349
		c3.458,0,6.122-2.494,6.122-6.349v-16.609h5.952v16.156c0,7.482-5.272,12.301-12.074,12.301c-6.973,0-12.188-4.819-12.188-12.301
		V304.645z"/>
	<path fill="#253D90" d="M243.618,320.516c0.737,4.536,4.308,7.313,9.07,7.313c2.891,0,5.612-1.077,8.106-3.288l2.834,4.082
		c-3.174,3.004-6.859,4.478-11.11,4.478c-8.503,0-14.965-6.292-14.965-14.512c-0.17-7.993,6.519-14.738,14.398-14.568
		c7.369,0,12.868,5.498,12.868,12.754c0,1.191-0.17,2.438-0.453,3.741H243.618z M258.866,315.868
		c-0.057-4.251-3.231-6.802-7.143-6.802c-3.911,0-7.085,2.664-7.993,6.802H258.866z M254.162,288.262h7.256v1.077l-7.313,10.941
		h-4.422L254.162,288.262z"/>
	<path fill="none" stroke="#253D90" stroke-miterlimit="10" d="M243.618,320.516c0.737,4.536,4.308,7.313,9.07,7.313
		c2.891,0,5.612-1.077,8.106-3.288l2.834,4.082c-3.174,3.004-6.859,4.478-11.11,4.478c-8.503,0-14.965-6.292-14.965-14.512
		c-0.17-7.993,6.519-14.738,14.398-14.568c7.369,0,12.868,5.498,12.868,12.754c0,1.191-0.17,2.438-0.453,3.741H243.618z
		 M258.866,315.868c-0.057-4.251-3.231-6.802-7.143-6.802c-3.911,0-7.085,2.664-7.993,6.802H258.866z M254.162,288.262h7.256v1.077
		l-7.313,10.941h-4.422L254.162,288.262z"/>
	<path fill="#253D90" d="M302.741,333.101c-3.797,0-7.085-1.473-9.296-4.025v13.605h-5.952v-38.036h5.555v3.911
		c2.041-2.891,5.612-4.535,9.693-4.535c7.88,0,13.662,6.292,13.662,14.512C316.403,326.866,310.621,333.101,302.741,333.101
		 M301.778,309.463c-4.365,0-8.39,3.004-8.39,9.07c0,6.122,4.025,9.126,8.39,9.126c4.762,0,8.503-3.741,8.503-9.07
		C310.281,313.261,306.596,309.463,301.778,309.463"/>
	<path fill="none" stroke="#253D90" stroke-miterlimit="10" d="M302.741,333.101c-3.797,0-7.085-1.473-9.296-4.025v13.605h-5.952
		v-38.036h5.555v3.911c2.041-2.891,5.612-4.535,9.693-4.535c7.88,0,13.662,6.292,13.662,14.512
		C316.403,326.866,310.621,333.101,302.741,333.101z M301.778,309.463c-4.365,0-8.39,3.004-8.39,9.07
		c0,6.122,4.025,9.126,8.39,9.126c4.762,0,8.503-3.741,8.503-9.07C310.281,313.261,306.596,309.463,301.778,309.463z"/>
	<path fill="#253D90" d="M336.187,304.021c8.106-0.17,14.965,6.632,14.795,14.512c0.17,7.879-6.689,14.738-14.795,14.568
		c-7.993,0.17-14.852-6.689-14.682-14.568C321.335,310.54,328.194,303.908,336.187,304.021 M336.244,309.463
		c-4.932,0-8.673,3.968-8.673,9.126c0,5.159,3.741,9.014,8.616,9.014c4.932,0,8.673-3.969,8.673-9.014
		C344.86,313.431,341.062,309.463,336.244,309.463"/>
	<path fill="none" stroke="#253D90" stroke-miterlimit="10" d="M336.187,304.021c8.106-0.17,14.965,6.632,14.795,14.512
		c0.17,7.879-6.689,14.738-14.795,14.568c-7.993,0.17-14.852-6.689-14.682-14.568C321.335,310.54,328.194,303.908,336.187,304.021z
		 M336.244,309.463c-4.932,0-8.673,3.968-8.673,9.126c0,5.159,3.741,9.014,8.616,9.014c4.932,0,8.673-3.969,8.673-9.014
		C344.86,313.431,341.062,309.463,336.244,309.463z"/>
	<path fill="#253D90" d="M384.937,289.963v42.515h-5.555v-3.969c-2.041,2.891-5.612,4.592-9.75,4.592
		c-7.823,0-13.605-6.292-13.605-14.512c-0.17-8.105,5.896-14.738,13.605-14.568c3.854,0,7.199,1.474,9.296,4.025v-18.083H384.937z
		 M370.652,309.463c-4.761,0-8.56,3.741-8.56,9.07c0,5.328,3.628,9.126,8.56,9.126c4.365,0,8.39-3.004,8.39-9.07
		C379.042,312.581,374.961,309.463,370.652,309.463"/>
	<path fill="none" stroke="#253D90" stroke-miterlimit="10" d="M384.937,289.963v42.515h-5.555v-3.969
		c-2.041,2.891-5.612,4.592-9.75,4.592c-7.823,0-13.605-6.292-13.605-14.512c-0.17-8.105,5.896-14.738,13.605-14.568
		c3.854,0,7.199,1.474,9.296,4.025v-18.083H384.937z M370.652,309.463c-4.761,0-8.56,3.741-8.56,9.07
		c0,5.328,3.628,9.126,8.56,9.126c4.365,0,8.39-3.004,8.39-9.07C379.042,312.581,374.961,309.463,370.652,309.463z"/>
	<path fill="#253D90" d="M397.861,320.517c0.737,4.535,4.309,7.312,9.07,7.312c2.891,0,5.613-1.076,8.107-3.287l2.834,4.081
		c-3.175,3.005-6.859,4.478-11.111,4.478c-8.503,0-14.965-6.292-14.965-14.511c-0.17-7.993,6.519-14.739,14.398-14.569
		c7.37,0,12.868,5.499,12.868,12.755c0,1.19-0.17,2.437-0.453,3.741H397.861z M413.11,315.869c-0.057-4.251-3.231-6.803-7.142-6.803
		c-3.912,0-7.086,2.665-7.993,6.803H413.11z"/>
	<path fill="none" stroke="#253D90" stroke-miterlimit="10" d="M397.861,320.517c0.737,4.535,4.309,7.312,9.07,7.312
		c2.891,0,5.613-1.076,8.107-3.287l2.834,4.081c-3.175,3.005-6.859,4.478-11.111,4.478c-8.503,0-14.965-6.292-14.965-14.511
		c-0.17-7.993,6.519-14.739,14.398-14.569c7.37,0,12.868,5.499,12.868,12.755c0,1.19-0.17,2.437-0.453,3.741H397.861z
		 M413.11,315.869c-0.057-4.251-3.231-6.803-7.142-6.803c-3.912,0-7.086,2.665-7.993,6.803H413.11z"/>
	<path fill="#253D90" d="M467.642,332.478h-6.009v-16.552c0-3.912-2.211-6.463-5.782-6.463c-3.628,0-6.122,2.608-6.122,6.179v16.836
		h-5.952v-16.552c0-3.855-2.267-6.463-5.839-6.463c-3.628,0-6.122,2.608-6.122,6.463v16.552h-5.952v-27.833h5.555v2.607
		c1.985-2.04,4.705-3.231,8.05-3.231c3.855,0,6.802,1.645,8.446,4.365c2.04-2.664,5.498-4.365,9.411-4.365
		c6.405,0,10.316,4.422,10.316,11.054V332.478z"/>
	<path fill="none" stroke="#253D90" stroke-miterlimit="10" d="M467.642,332.478h-6.009v-16.552c0-3.912-2.211-6.463-5.782-6.463
		c-3.628,0-6.122,2.608-6.122,6.179v16.836h-5.952v-16.552c0-3.855-2.267-6.463-5.839-6.463c-3.628,0-6.122,2.608-6.122,6.463
		v16.552h-5.952v-27.833h5.555v2.607c1.985-2.04,4.705-3.231,8.05-3.231c3.855,0,6.802,1.645,8.446,4.365
		c2.04-2.664,5.498-4.365,9.411-4.365c6.405,0,10.316,4.422,10.316,11.054V332.478z"/>
	<path fill="#253D90" d="M488.843,304.021c8.107-0.17,14.966,6.632,14.795,14.512c0.171,7.879-6.688,14.738-14.795,14.568
		c-7.992,0.17-14.851-6.689-14.681-14.568C473.992,310.54,480.851,303.908,488.843,304.021 M488.9,309.463
		c-4.932,0-8.673,3.968-8.673,9.126c0,5.159,3.741,9.014,8.616,9.014c4.932,0,8.673-3.969,8.673-9.014
		C497.516,313.431,493.718,309.463,488.9,309.463"/>
	<path fill="none" stroke="#253D90" stroke-miterlimit="10" d="M488.843,304.021c8.107-0.17,14.966,6.632,14.795,14.512
		c0.171,7.879-6.688,14.738-14.795,14.568c-7.992,0.17-14.851-6.689-14.681-14.568C473.992,310.54,480.851,303.908,488.843,304.021z
		 M488.9,309.463c-4.932,0-8.673,3.968-8.673,9.126c0,5.159,3.741,9.014,8.616,9.014c4.932,0,8.673-3.969,8.673-9.014
		C497.516,313.431,493.718,309.463,488.9,309.463z"/>
	<path fill="#253D90" d="M511.235,323.975c2.438,2.551,4.875,3.968,7.823,3.968c2.551,0,4.478-1.077,4.478-3.118
		c0-1.643-1.191-2.324-3.911-3.457l-2.834-1.191c-4.932-2.041-7.256-4.195-7.256-8.106c0-4.989,4.138-8.05,9.806-8.05
		c4.025,0,7.2,1.417,9.637,4.308l-3.231,3.685c-1.757-1.814-4.081-2.834-6.519-2.834c-2.324,0-3.798,0.907-3.798,2.664
		c0,1.417,0.963,2.154,3.685,3.288l2.664,1.077c5.271,2.211,7.596,4.478,7.596,8.39c0,2.664-0.964,4.761-2.948,6.292
		c-1.984,1.474-4.421,2.21-7.369,2.21c-4.761,0-8.73-2.154-11.224-5.385L511.235,323.975z"/>
	<path fill="none" stroke="#253D90" stroke-miterlimit="10" d="M511.235,323.975c2.438,2.551,4.875,3.968,7.823,3.968
		c2.551,0,4.478-1.077,4.478-3.118c0-1.643-1.191-2.324-3.911-3.457l-2.834-1.191c-4.932-2.041-7.256-4.195-7.256-8.106
		c0-4.989,4.138-8.05,9.806-8.05c4.025,0,7.2,1.417,9.637,4.308l-3.231,3.685c-1.757-1.814-4.081-2.834-6.519-2.834
		c-2.324,0-3.798,0.907-3.798,2.664c0,1.417,0.963,2.154,3.685,3.288l2.664,1.077c5.271,2.211,7.596,4.478,7.596,8.39
		c0,2.664-0.964,4.761-2.948,6.292c-1.984,1.474-4.421,2.21-7.369,2.21c-4.761,0-8.73-2.154-11.224-5.385L511.235,323.975z"/>
	<path fill="#253D90" d="M576.425,332.478h-5.952v-16.552c0-3.855-2.381-6.463-6.066-6.463c-3.684,0-6.349,2.664-6.349,6.463v16.552
		h-5.951v-42.515h5.951v17.46c1.871-2.211,4.705-3.402,8.05-3.402c6.348,0,10.317,4.478,10.317,11.054V332.478z"/>
	<path fill="none" stroke="#253D90" stroke-miterlimit="10" d="M576.425,332.478h-5.952v-16.552c0-3.855-2.381-6.463-6.066-6.463
		c-3.684,0-6.349,2.664-6.349,6.463v16.552h-5.951v-42.515h5.951v17.46c1.871-2.211,4.705-3.402,8.05-3.402
		c6.348,0,10.317,4.478,10.317,11.054V332.478z"/>
	<path fill="#253D90" d="M606.809,332.478h-5.556v-3.118c-2.04,2.438-5.101,3.741-8.899,3.741c-5.839,0-9.694-3.231-9.694-8.049
		s3.968-7.936,10.26-7.936h7.88v-1.814c0-3.855-2.154-5.952-5.952-5.952c-3.118,0-5.386,1.36-7.709,4.138l-3.458-3.515
		c2.777-4.025,6.915-5.952,11.733-5.952c6.86,0,11.395,4.138,11.395,11.621V332.478z M600.8,321.424h-7.143
		c-3.174,0-4.931,1.134-4.931,3.401c0,2.324,1.984,3.684,4.875,3.684c4.024,0,7.199-2.777,7.199-6.575V321.424z"/>
	<path fill="none" stroke="#253D90" stroke-miterlimit="10" d="M606.809,332.478h-5.556v-3.118c-2.04,2.438-5.101,3.741-8.899,3.741
		c-5.839,0-9.694-3.231-9.694-8.049s3.968-7.936,10.26-7.936h7.88v-1.814c0-3.855-2.154-5.952-5.952-5.952
		c-3.118,0-5.386,1.36-7.709,4.138l-3.458-3.515c2.777-4.025,6.915-5.952,11.733-5.952c6.86,0,11.395,4.138,11.395,11.621V332.478z
		 M600.8,321.424h-7.143c-3.174,0-4.931,1.134-4.931,3.401c0,2.324,1.984,3.684,4.875,3.684c4.024,0,7.199-2.777,7.199-6.575
		V321.424z"/>
	<path fill="#253D90" d="M628.065,304.021c5.159,0,9.297,2.438,11.734,6.462l-4.194,3.288c-1.984-2.834-4.478-4.251-7.483-4.251
		c-4.989,0-8.73,3.968-8.73,9.013c0,5.101,3.741,9.07,8.73,9.07c2.948,0,5.442-1.417,7.483-4.195l4.194,3.231
		c-2.494,4.025-6.689,6.462-11.734,6.462c-8.219,0-14.738-6.462-14.738-14.568C613.157,310.54,620.073,303.908,628.065,304.021"/>
	<path fill="none" stroke="#253D90" stroke-miterlimit="10" d="M628.065,304.021c5.159,0,9.297,2.438,11.734,6.462l-4.194,3.288
		c-1.984-2.834-4.478-4.251-7.483-4.251c-4.989,0-8.73,3.968-8.73,9.013c0,5.101,3.741,9.07,8.73,9.07
		c2.948,0,5.442-1.417,7.483-4.195l4.194,3.231c-2.494,4.025-6.689,6.462-11.734,6.462c-8.219,0-14.738-6.462-14.738-14.568
		C613.157,310.54,620.073,303.908,628.065,304.021z"/>
	<path fill="#253D90" d="M650.682,320.517c0.737,4.535,4.309,7.312,9.07,7.312c2.891,0,5.612-1.076,8.106-3.287l2.835,4.081
		c-3.175,3.005-6.86,4.478-11.112,4.478c-8.503,0-14.964-6.292-14.964-14.511c-0.17-7.993,6.518-14.739,14.398-14.569
		c7.369,0,12.868,5.499,12.868,12.755c0,1.19-0.17,2.437-0.454,3.741H650.682z M665.932,315.869
		c-0.057-4.251-3.231-6.803-7.143-6.803c-3.911,0-7.086,2.665-7.993,6.803H665.932z"/>
	<path fill="none" stroke="#253D90" stroke-miterlimit="10" d="M650.682,320.517c0.737,4.535,4.309,7.312,9.07,7.312
		c2.891,0,5.612-1.076,8.106-3.287l2.835,4.081c-3.175,3.005-6.86,4.478-11.112,4.478c-8.503,0-14.964-6.292-14.964-14.511
		c-0.17-7.993,6.518-14.739,14.398-14.569c7.369,0,12.868,5.499,12.868,12.755c0,1.19-0.17,2.437-0.454,3.741H650.682z
		 M665.932,315.869c-0.057-4.251-3.231-6.803-7.143-6.803c-3.911,0-7.086,2.665-7.993,6.803H665.932z"/>
	<path fill="#253D90" d="M694.615,309.917h-1.814c-4.706,0-8.164,2.777-8.164,7.709v14.852h-5.951v-27.833h5.555v3.628
		c1.984-2.494,4.932-3.911,8.106-3.911c0.851,0,1.587,0.113,2.268,0.283V309.917z"/>
	<path fill="none" stroke="#253D90" stroke-miterlimit="10" d="M694.615,309.917h-1.814c-4.706,0-8.164,2.777-8.164,7.709v14.852
		h-5.951v-27.833h5.555v3.628c1.984-2.494,4.932-3.911,8.106-3.911c0.851,0,1.587,0.113,2.268,0.283V309.917z"/>
	<path fill="#253D90" d="M708.73,310.427c2.947-2.664,3.911-3.798,3.911-5.895c0-2.665-2.041-4.592-4.592-4.592
		c-2.494,0-4.42,1.701-5.498,4.875l-4.988-2.154c1.587-5.272,5.498-8.22,10.713-8.22c5.782,0,10.544,4.025,10.544,9.637
		c0,3.345-1.644,5.782-5.045,8.787c-3.004,2.664-4.024,3.684-4.024,5.328c0,0.397,0.056,0.907,0.226,1.531h-5.101
		c-0.398-0.908-0.624-1.758-0.624-2.608C704.252,314.792,705.782,312.921,708.73,310.427 M707.653,324.315
		c2.494,0,4.422,1.871,4.422,4.422c0,2.494-1.928,4.365-4.422,4.365c-2.494,0-4.422-1.871-4.422-4.365
		C703.231,326.243,705.159,324.315,707.653,324.315"/>
	<path fill="none" stroke="#253D90" stroke-miterlimit="10" d="M708.73,310.427c2.947-2.664,3.911-3.798,3.911-5.895
		c0-2.665-2.041-4.592-4.592-4.592c-2.494,0-4.42,1.701-5.498,4.875l-4.988-2.154c1.587-5.272,5.498-8.22,10.713-8.22
		c5.782,0,10.544,4.025,10.544,9.637c0,3.345-1.644,5.782-5.045,8.787c-3.004,2.664-4.024,3.684-4.024,5.328
		c0,0.397,0.056,0.907,0.226,1.531h-5.101c-0.398-0.908-0.624-1.758-0.624-2.608C704.252,314.792,705.782,312.921,708.73,310.427z
		 M707.653,324.315c2.494,0,4.422,1.871,4.422,4.422c0,2.494-1.928,4.365-4.422,4.365c-2.494,0-4.422-1.871-4.422-4.365
		C703.231,326.243,705.159,324.315,707.653,324.315z"/>
</g>
<g>
	<polygon fill="#253D90" points="34.852,20.142 40.979,20.142 40.979,66.497 65.571,66.497 65.571,71.996 34.852,71.996 	"/>
	<path fill="#253D90" d="M106.19,61.469H80.734l-4.4,10.528h-6.442l22.47-52.719h2.279l22.47,52.719h-6.521L106.19,61.469z
		 M93.462,30.435L83.091,55.969h20.742L93.462,30.435z"/>
	<path fill="#253D90" d="M148.065,20.142h16.264c16.97,0,28.205,10.528,28.205,25.849c0,15.085-11.313,26.006-28.205,26.006h-16.264
		V20.142z M164.25,64.533c12.021,0,19.72-7.7,19.72-18.542c0-11-7.621-18.306-19.72-18.306h-7.857v36.848H164.25z"/>
	<path fill="none" stroke="#253D90" stroke-miterlimit="10" d="M148.065,20.142h16.264c16.97,0,28.205,10.528,28.205,25.849
		c0,15.085-11.313,26.006-28.205,26.006h-16.264V20.142z M164.25,64.533c12.021,0,19.72-7.7,19.72-18.542
		c0-11-7.621-18.306-19.72-18.306h-7.857v36.848H164.25z"/>
	<polygon fill="#253D90" points="202.431,20.142 236.53,20.142 236.53,27.606 210.759,27.606 210.759,40.884 230.165,40.884 
		230.165,48.112 210.759,48.112 210.759,64.533 237.472,64.533 237.472,71.996 202.431,71.996 	"/>
	<polygon fill="none" stroke="#253D90" stroke-miterlimit="10" points="202.431,20.142 236.53,20.142 236.53,27.606 210.759,27.606 
		210.759,40.884 230.165,40.884 230.165,48.112 210.759,48.112 210.759,64.533 237.472,64.533 237.472,71.996 202.431,71.996 	"/>
	<path fill="#253D90" d="M249.335,57.147c3.457,5.028,7.621,8.25,13.592,8.25c5.343,0,8.957-2.829,8.957-7.229
		c0-3.692-2.2-5.264-7.621-7.778l-5.736-2.671c-7.542-3.457-12.099-7.464-12.099-14.378c0-8.486,7.385-14.064,16.342-14.064
		c7.307,0,13.513,3.693,16.735,9.271l-5.814,4.479c-2.75-4.086-6.522-6.286-10.921-6.286c-4.4,0-7.857,2.2-7.857,6.286
		c0.315,4.085,2.121,4.792,7.228,7.385l5.814,2.672c8.407,3.849,12.414,7.935,12.414,14.77c0,9.035-7.386,15.006-17.364,15.006
		c-8.485,0-15.556-4.242-19.563-11.235L249.335,57.147z"/>
	<path fill="none" stroke="#253D90" stroke-miterlimit="10" d="M249.335,57.147c3.457,5.028,7.621,8.25,13.592,8.25
		c5.343,0,8.957-2.829,8.957-7.229c0-3.692-2.2-5.264-7.621-7.778l-5.736-2.671c-7.542-3.457-12.099-7.464-12.099-14.378
		c0-8.486,7.385-14.064,16.342-14.064c7.307,0,13.513,3.693,16.735,9.271l-5.814,4.479c-2.75-4.086-6.522-6.286-10.921-6.286
		c-4.4,0-7.857,2.2-7.857,6.286c0.315,4.085,2.121,4.792,7.228,7.385l5.814,2.672c8.407,3.849,12.414,7.935,12.414,14.77
		c0,9.035-7.386,15.006-17.364,15.006c-8.485,0-15.556-4.242-19.563-11.235L249.335,57.147z"/>
	<rect x="291.053" y="20.142" fill="#253D90" width="8.328" height="51.854"/>
	<rect x="291.053" y="20.142" fill="none" stroke="#253D90" stroke-miterlimit="10" width="8.328" height="51.854"/>
	<polygon fill="#253D90" points="355.163,20.142 355.163,72.861 352.335,72.861 320.749,36.877 320.749,71.996 312.421,71.996 
		312.421,19.278 315.329,19.278 346.835,55.104 346.835,20.142 	"/>
	<polygon fill="none" stroke="#253D90" stroke-miterlimit="10" points="355.163,20.142 355.163,72.861 352.335,72.861 
		320.749,36.877 320.749,71.996 312.421,71.996 312.421,19.278 315.329,19.278 346.835,55.104 346.835,20.142 	"/>
	<polygon fill="#253D90" points="368.282,20.142 401.595,20.142 401.595,27.606 376.61,27.606 376.61,43.084 397.195,43.084 
		397.195,50.626 376.61,50.626 376.61,71.996 368.282,71.996 	"/>
	<polygon fill="none" stroke="#253D90" stroke-miterlimit="10" points="368.282,20.142 401.595,20.142 401.595,27.606 
		376.61,27.606 376.61,43.084 397.195,43.084 397.195,50.626 376.61,50.626 376.61,71.996 368.282,71.996 	"/>
	<path fill="#253D90" d="M433.885,19.278c14.692-0.236,27.577,11.942,27.262,26.791c0.315,14.85-12.57,27.028-27.262,26.792
		c-14.85,0.236-27.499-11.942-27.185-26.792C406.464,31.22,419.114,19.042,433.885,19.278 M433.963,26.899
		c-10.764,0-18.62,8.171-18.62,19.092c0,11.078,7.856,19.249,18.62,19.249c10.607,0,18.621-8.171,18.621-19.249
		C452.584,35.149,444.57,26.899,433.963,26.899"/>
	<path fill="none" stroke="#253D90" stroke-miterlimit="10" d="M433.885,19.278c14.692-0.236,27.577,11.942,27.262,26.791
		c0.315,14.85-12.57,27.028-27.262,26.792c-14.85,0.236-27.499-11.942-27.185-26.792C406.464,31.22,419.114,19.042,433.885,19.278z
		 M433.963,26.899c-10.764,0-18.62,8.171-18.62,19.092c0,11.078,7.856,19.249,18.62,19.249c10.607,0,18.621-8.171,18.621-19.249
		C452.584,35.149,444.57,26.899,433.963,26.899z"/>
	<path fill="#253D90" d="M503.73,71.997l-14.771-20.035h-9.506v20.035h-8.328V20.142h18.934c10.45,0,17.599,6.521,17.599,15.871
		c0,6.835-3.77,12.178-9.977,14.613l15.555,21.371H503.73z M479.453,44.577h10.449c5.736,0,9.193-3.457,9.193-8.485
		c0-5.107-3.457-8.564-9.193-8.564h-10.449V44.577z"/>
	<path fill="none" stroke="#253D90" stroke-miterlimit="10" d="M503.73,71.997l-14.771-20.035h-9.506v20.035h-8.328V20.142h18.934
		c10.45,0,17.599,6.521,17.599,15.871c0,6.835-3.77,12.178-9.977,14.613l15.555,21.371H503.73z M479.453,44.577h10.449
		c5.736,0,9.193-3.457,9.193-8.485c0-5.107-3.457-8.564-9.193-8.564h-10.449V44.577z"/>
	<polygon fill="#253D90" points="569.962,19.278 569.962,71.997 561.634,71.997 561.634,39.47 546.784,58.955 543.956,58.955 
		529.028,39.391 529.028,71.997 520.7,71.997 520.7,19.278 523.607,19.278 545.37,48.269 567.133,19.278 	"/>
	<polygon fill="none" stroke="#253D90" stroke-miterlimit="10" points="569.962,19.278 569.962,71.997 561.634,71.997 
		561.634,39.47 546.784,58.955 543.956,58.955 529.028,39.391 529.028,71.997 520.7,71.997 520.7,19.278 523.607,19.278 
		545.37,48.269 567.133,19.278 	"/>
	<path fill="#253D90" d="M614.115,63.354H590.78l-3.692,8.642h-8.878l22.863-52.719h2.828l22.863,52.719h-8.957L614.115,63.354z
		 M602.487,34.755l-8.721,21.449h17.364L602.487,34.755z"/>
	<path fill="none" stroke="#253D90" stroke-miterlimit="10" d="M614.115,63.354H590.78l-3.692,8.642h-8.878l22.863-52.719h2.828
		l22.863,52.719h-8.957L614.115,63.354z M602.487,34.755l-8.721,21.449h17.364L602.487,34.755z"/>
	<path fill="#253D90" d="M659.133,19.278c9.507,0,17.756,4.635,22.234,11.942l-6.285,4.636c-3.693-5.736-9.035-8.957-15.871-8.957
		c-10.606,0-18.699,8.171-18.699,19.171c0,10.999,8.093,19.17,18.699,19.17c6.836,0,12.178-3.221,15.871-8.957l6.285,4.636
		c-4.399,7.307-12.571,11.942-22.234,11.942c-14.771,0.236-27.577-11.942-27.264-26.791
		C631.556,31.22,644.362,19.042,659.133,19.278"/>
	<path fill="none" stroke="#253D90" stroke-miterlimit="10" d="M659.133,19.278c9.507,0,17.756,4.635,22.234,11.942l-6.285,4.636
		c-3.693-5.736-9.035-8.957-15.871-8.957c-10.606,0-18.699,8.171-18.699,19.171c0,10.999,8.093,19.17,18.699,19.17
		c6.836,0,12.178-3.221,15.871-8.957l6.285,4.636c-4.399,7.307-12.571,11.942-22.234,11.942
		c-14.771,0.236-27.577-11.942-27.264-26.791C631.556,31.22,644.362,19.042,659.133,19.278z"/>
	<rect x="691.345" y="20.142" fill="#253D90" width="8.328" height="51.854"/>
	<rect x="691.345" y="20.142" fill="none" stroke="#253D90" stroke-miterlimit="10" width="8.328" height="51.854"/>
	<path fill="#253D90" d="M736.755,19.278c14.692-0.236,27.577,11.942,27.263,26.791c0.314,14.849-12.571,27.028-27.263,26.792
		c-14.849,0.236-27.498-11.943-27.185-26.792C709.335,31.22,721.984,19.042,736.755,19.278 M736.834,26.899
		c-10.764,0-18.621,8.171-18.621,19.092c0,11.078,7.857,19.249,18.621,19.249c10.606,0,18.62-8.171,18.62-19.249
		C755.454,35.148,747.44,26.899,736.834,26.899 M739.819,0.5h10.057v1.493L739.74,15.114h-6.128L739.819,0.5z"/>
	<path fill="none" stroke="#253D90" stroke-miterlimit="10" d="M736.755,19.278c14.692-0.236,27.577,11.942,27.263,26.791
		c0.314,14.849-12.571,27.028-27.263,26.792c-14.849,0.236-27.498-11.943-27.185-26.792
		C709.335,31.22,721.984,19.042,736.755,19.278z M736.834,26.899c-10.764,0-18.621,8.171-18.621,19.092
		c0,11.078,7.857,19.249,18.621,19.249c10.606,0,18.62-8.171,18.62-19.249C755.454,35.148,747.44,26.899,736.834,26.899z
		 M739.819,0.5h10.057v1.493L739.74,15.114h-6.128L739.819,0.5z"/>
	<polygon fill="#253D90" points="816.735,20.142 816.735,72.861 813.907,72.861 782.323,36.877 782.323,71.996 773.995,71.996 
		773.995,19.278 776.901,19.278 808.407,55.104 808.407,20.142 	"/>
	<polygon fill="none" stroke="#253D90" stroke-miterlimit="10" points="816.735,20.142 816.735,72.861 813.907,72.861 
		782.323,36.877 782.323,71.996 773.995,71.996 773.995,19.278 776.901,19.278 808.407,55.104 808.407,20.142 	"/>
</g>
</svg>
