<?xml version="1.0" encoding="utf-8"?>
<!-- Generator: Adobe Illustrator 17.0.0, SVG Export Plug-In . SVG Version: 6.00 Build 0)  -->
<!DOCTYPE svg PUBLIC "-//W3C//DTD SVG 1.1//EN" "http://www.w3.org/Graphics/SVG/1.1/DTD/svg11.dtd">
<svg version="1.1" id="Layer_1" xmlns="http://www.w3.org/2000/svg" xmlns:xlink="http://www.w3.org/1999/xlink" x="0px" y="0px"
	 width="1308.827px" height="462.828px" viewBox="0 0 1308.827 462.828" enable-background="new 0 0 1308.827 462.828"
	 xml:space="preserve">
<rect x="338.712" y="387.245" fill="#E97E24" width="636.486" height="75.583"/>
<path fill="#374FA2" d="M1031.531,376.186c0,2.208-1.789,3.997-3.997,3.997c-2.207,0-3.996-1.789-3.996-3.997
	c0-2.207,1.789-3.997,3.996-3.997C1029.742,372.189,1031.531,373.979,1031.531,376.186"/>
<path fill="#374FA2" d="M1057.994,376.186c0,2.208-1.789,3.997-3.996,3.997c-2.207,0-3.997-1.789-3.997-3.997
	c0-2.207,1.79-3.997,3.997-3.997C1056.205,372.189,1057.994,373.979,1057.994,376.186"/>
<path fill="#374FA2" d="M1084.458,376.186c0,2.208-1.79,3.997-3.997,3.997s-3.996-1.789-3.996-3.997
	c0-2.207,1.789-3.997,3.996-3.997S1084.458,373.979,1084.458,376.186"/>
<path fill="#374FA2" d="M1110.921,376.186c0,2.208-1.789,3.997-3.996,3.997c-2.208,0-3.997-1.789-3.997-3.997
	c0-2.207,1.789-3.997,3.997-3.997C1109.131,372.189,1110.921,373.979,1110.921,376.186"/>
<path fill="#374FA2" d="M1137.384,376.186c0,2.208-1.79,3.997-3.997,3.997s-3.996-1.789-3.996-3.997
	c0-2.207,1.789-3.997,3.996-3.997S1137.384,373.979,1137.384,376.186"/>
<path fill="#374FA2" d="M1163.847,376.186c0,2.208-1.789,3.997-3.996,3.997c-2.208,0-3.997-1.789-3.997-3.997
	c0-2.207,1.789-3.997,3.997-3.997C1162.058,372.189,1163.847,373.979,1163.847,376.186"/>
<path fill="#374FA2" d="M1190.311,376.186c0,2.208-1.79,3.997-3.997,3.997s-3.996-1.789-3.996-3.997
	c0-2.207,1.789-3.997,3.996-3.997S1190.311,373.979,1190.311,376.186"/>
<path fill="#374FA2" d="M1216.774,376.186c0,2.208-1.789,3.997-3.996,3.997c-2.208,0-3.997-1.789-3.997-3.997
	c0-2.207,1.789-3.997,3.997-3.997C1214.985,372.189,1216.774,373.979,1216.774,376.186"/>
<path fill="#374FA2" d="M1243.238,376.186c0,2.208-1.79,3.997-3.997,3.997s-3.997-1.789-3.997-3.997c0-2.207,1.79-3.997,3.997-3.997
	S1243.238,373.979,1243.238,376.186"/>
<path fill="#374FA2" d="M1044.938,397.137c0,2.207-1.789,3.997-3.997,3.997c-2.207,0-3.996-1.79-3.996-3.997
	c0-2.208,1.789-3.997,3.996-3.997C1043.149,393.14,1044.938,394.929,1044.938,397.137"/>
<path fill="#374FA2" d="M1071.401,397.137c0,2.207-1.789,3.997-3.996,3.997c-2.207,0-3.997-1.79-3.997-3.997
	c0-2.208,1.79-3.997,3.997-3.997C1069.612,393.14,1071.401,394.929,1071.401,397.137"/>
<path fill="#374FA2" d="M1097.865,397.137c0,2.207-1.789,3.997-3.997,3.997c-2.207,0-3.996-1.79-3.996-3.997
	c0-2.208,1.789-3.997,3.996-3.997C1096.076,393.14,1097.865,394.929,1097.865,397.137"/>
<path fill="#374FA2" d="M1124.328,397.137c0,2.207-1.789,3.997-3.996,3.997c-2.207,0-3.997-1.79-3.997-3.997
	c0-2.208,1.79-3.997,3.997-3.997C1122.539,393.14,1124.328,394.929,1124.328,397.137"/>
<path fill="#374FA2" d="M1150.792,397.137c0,2.207-1.79,3.997-3.997,3.997s-3.996-1.79-3.996-3.997c0-2.208,1.789-3.997,3.996-3.997
	S1150.792,394.929,1150.792,397.137"/>
<path fill="#374FA2" d="M1177.255,397.137c0,2.207-1.789,3.997-3.996,3.997c-2.208,0-3.997-1.79-3.997-3.997
	c0-2.208,1.789-3.997,3.997-3.997C1175.465,393.14,1177.255,394.929,1177.255,397.137"/>
<path fill="#374FA2" d="M1203.718,397.137c0,2.207-1.79,3.997-3.997,3.997s-3.996-1.79-3.996-3.997c0-2.208,1.789-3.997,3.996-3.997
	S1203.718,394.929,1203.718,397.137"/>
<path fill="#374FA2" d="M1230.181,397.137c0,2.207-1.789,3.997-3.996,3.997c-2.208,0-3.997-1.79-3.997-3.997
	c0-2.208,1.789-3.997,3.997-3.997C1228.392,393.14,1230.181,394.929,1230.181,397.137"/>
<path fill="#374FA2" d="M1256.645,397.137c0,2.207-1.79,3.997-3.997,3.997s-3.996-1.79-3.996-3.997c0-2.208,1.789-3.997,3.996-3.997
	S1256.645,394.929,1256.645,397.137"/>
<g opacity="0.2">
	<g>
		<defs>
			<rect id="SVGID_1_" x="146.692" y="25.85" width="150.641" height="150.64"/>
		</defs>
		<clipPath id="SVGID_2_">
			<use xlink:href="#SVGID_1_"  overflow="visible"/>
		</clipPath>
		<path clip-path="url(#SVGID_2_)" fill="#2B3F99" d="M297.333,101.172c0,41.599-33.722,75.321-75.321,75.321
			c-41.598,0-75.32-33.722-75.32-75.321c0-41.598,33.722-75.32,75.32-75.32C263.611,25.853,297.333,59.574,297.333,101.172"/>
	</g>
</g>
<g opacity="0.2">
	<g>
		<defs>
			<rect id="SVGID_3_" x="110.33" width="152.641" height="152.64"/>
		</defs>
		<clipPath id="SVGID_4_">
			<use xlink:href="#SVGID_3_"  overflow="visible"/>
		</clipPath>
		
			<circle clip-path="url(#SVGID_4_)" fill="none" stroke="#2B3F99" stroke-width="2" stroke-miterlimit="10" cx="186.65" cy="76.324" r="75.321"/>
	</g>
</g>
<path fill="#FFFFFF" d="M377.338,417.16l-1.421,10.55h6.425v6.086h-7.236l-1.488,10.956h-5.883l1.487-10.956h-11.564l-1.488,10.956
	h-5.883l1.488-10.956h-5.748v-6.086h6.559l1.353-10.55h-6.357v-6.086h7.168l1.488-10.956h6.019l-1.488,10.956h11.429l1.488-10.956
	h5.951l-1.488,10.956h5.681v6.086H377.338z M369.966,427.913l1.488-10.956h-11.497l-1.487,10.956H369.966z"/>
<polygon fill="#FFFFFF" points="429.005,400.118 409.325,445.496 406.891,445.496 387.212,400.118 395.259,400.118 408.109,431.159 
	420.957,400.118 "/>
<path fill="#FFFFFF" d="M446.926,410.803c9.671-0.203,17.853,7.912,17.65,17.312c0.203,9.4-7.979,17.583-17.65,17.381
	c-9.536,0.202-17.719-7.981-17.516-17.381C429.207,418.58,437.39,410.668,446.926,410.803 M446.993,417.295
	c-5.883,0-10.347,4.734-10.347,10.888s4.464,10.753,10.28,10.753c5.883,0,10.346-4.734,10.346-10.753
	C457.272,422.029,452.742,417.295,446.993,417.295"/>
<rect x="472.691" y="394.032" fill="#FFFFFF" width="7.101" height="50.72"/>
<polygon fill="#FFFFFF" points="520.773,411.547 504.745,445.496 502.311,445.496 486.216,411.547 493.79,411.547 503.528,433.526 
	513.199,411.547 "/>
<path fill="#FFFFFF" d="M552.219,444.753h-6.627v-3.72c-2.435,2.908-6.086,4.464-10.617,4.464c-6.966,0-11.565-3.855-11.565-9.604
	c0-5.748,4.734-9.468,12.241-9.468h9.4v-2.164c0-4.598-2.57-7.1-7.101-7.1c-3.719,0-6.424,1.623-9.197,4.936l-4.125-4.192
	c3.314-4.802,8.25-7.101,13.998-7.101c8.183,0,13.593,4.937,13.593,13.864V444.753z M545.051,431.564h-8.521
	c-3.787,0-5.883,1.353-5.883,4.058c0,2.773,2.366,4.396,5.815,4.396c4.802,0,8.589-3.314,8.589-7.845V431.564z"/>
<path fill="#FFFFFF" d="M611.934,444.752h-7.169v-19.747c0-4.666-2.637-7.71-6.897-7.71c-4.329,0-7.304,3.111-7.304,7.372v20.085
	h-7.101v-19.747c0-4.599-2.705-7.71-6.966-7.71c-4.328,0-7.303,3.111-7.303,7.71v19.747h-7.101v-33.205h6.627v3.111
	c2.367-2.434,5.613-3.855,9.603-3.855c4.599,0,8.115,1.962,10.077,5.208c2.434-3.179,6.559-5.208,11.225-5.208
	c7.642,0,12.309,5.275,12.309,13.187V444.752z"/>
<path fill="#FFFFFF" d="M637.226,410.803c9.671-0.203,17.854,7.912,17.651,17.312c0.203,9.4-7.98,17.583-17.651,17.381
	c-9.536,0.202-17.718-7.981-17.515-17.381C619.508,418.58,627.69,410.668,637.226,410.803 M637.294,417.295
	c-5.884,0-10.347,4.734-10.347,10.888s4.463,10.753,10.279,10.753c5.883,0,10.347-4.734,10.347-10.753
	C647.573,422.029,643.042,417.295,637.294,417.295"/>
<path fill="#FFFFFF" d="M663.938,434.608c2.908,3.043,5.816,4.734,9.333,4.734c3.042,0,5.342-1.285,5.342-3.72
	c0-1.961-1.42-2.772-4.666-4.125l-3.382-1.42c-5.883-2.434-8.656-5.005-8.656-9.671c0-5.951,4.937-9.603,11.699-9.603
	c4.802,0,8.589,1.691,11.497,5.14l-3.855,4.396c-2.096-2.164-4.869-3.382-7.776-3.382c-2.773,0-4.532,1.082-4.532,3.179
	c0,1.69,1.15,2.57,4.396,3.922l3.179,1.285c6.289,2.638,9.061,5.343,9.061,10.009c0,3.178-1.149,5.68-3.515,7.506
	c-2.368,1.759-5.276,2.638-8.792,2.638c-5.681,0-10.415-2.57-13.391-6.425L663.938,434.608z"/>
<path fill="#FFFFFF" d="M721.014,437.313h-20.086l-3.178,7.439h-7.642l19.679-45.378h2.435l19.679,45.378h-7.709L721.014,437.313z
	 M711.005,412.697l-7.507,18.462h14.945L711.005,412.697z"/>
<path fill="#FFFFFF" d="M739,400.118h13.999c14.608,0,24.278,9.062,24.278,22.249c0,12.984-9.739,22.385-24.278,22.385H739V400.118z
	 M752.931,438.327c10.348,0,16.975-6.627,16.975-15.96c0-9.468-6.56-15.757-16.975-15.757h-6.763v31.717H752.931z"/>
<path fill="#FFFFFF" d="M790.464,430.483c0.879,5.41,5.139,8.724,10.82,8.724c3.449,0,6.695-1.285,9.671-3.922l3.381,4.869
	c-3.787,3.584-8.183,5.343-13.255,5.343c-10.144,0-17.854-7.507-17.854-17.313c-0.202-9.536,7.778-17.583,17.178-17.38
	c8.791,0,15.351,6.56,15.351,15.216c0,1.42-0.203,2.908-0.541,4.463H790.464z M808.655,424.938
	c-0.067-5.072-3.854-8.115-8.521-8.115c-4.666,0-8.453,3.178-9.535,8.115H808.655z"/>
<path fill="#FFFFFF" d="M842.131,445.496c-4.869,0-9.13-1.894-11.633-5.343v4.599h-6.627v-50.721h7.101v21.573
	c2.503-3.043,6.492-4.801,11.09-4.801c9.401,0,16.299,7.506,16.299,17.38C858.361,437.99,851.395,445.496,842.131,445.496
	 M840.913,417.295c-5.207,0-10.009,3.584-10.009,10.888c0,7.236,4.802,10.82,10.009,10.82c5.748,0,10.144-4.531,10.144-10.888
	C851.057,421.758,846.594,417.295,840.913,417.295"/>
<path fill="#FFFFFF" d="M892.918,444.753h-6.628v-3.72c-2.435,2.908-6.087,4.464-10.617,4.464c-6.966,0-11.565-3.855-11.565-9.604
	c0-5.748,4.734-9.468,12.241-9.468h9.4v-2.164c0-4.598-2.569-7.1-7.101-7.1c-3.719,0-6.424,1.623-9.197,4.936l-4.125-4.192
	c3.314-4.802,8.25-7.101,13.998-7.101c8.184,0,13.594,4.937,13.594,13.864V444.753z M885.749,431.564h-8.521
	c-3.787,0-5.883,1.353-5.883,4.058c0,2.773,2.366,4.396,5.815,4.396c4.802,0,8.589-3.314,8.589-7.845V431.564z"/>
<path fill="#FFFFFF" d="M922.538,444.752c-2.231,0.474-4.192,0.744-5.884,0.744c-7.641,0-12.24-3.787-12.24-11.564v-16.231h-5.41
	v-6.154h5.41v-8.724h7.168v8.724h9.874v6.154h-9.874v15.622c0,4.261,2.232,5.748,6.56,5.748c1.014,0,2.435-0.135,4.396-0.338
	V444.752z"/>
<path fill="#FFFFFF" d="M933.29,394.437c2.638,0,4.802,2.097,4.802,4.734c0,2.638-2.164,4.667-4.802,4.667
	c-2.705,0-4.869-2.029-4.869-4.667C928.421,396.534,930.585,394.437,933.29,394.437 M929.706,411.547h7.101v33.205h-7.101V411.547z"
	/>
<path fill="#FFFFFF" d="M966.088,417.836h-2.164c-5.613,0-9.738,3.314-9.738,9.197v17.719h-7.101v-33.206h6.628v4.329
	c2.366-2.976,5.883-4.666,9.67-4.666c1.015,0,1.893,0.135,2.705,0.337V417.836z"/>
<path fill="#253D90" d="M26.954,214.471c9.192,0,17.128,4.321,21.528,11.157l-4.557,3.614c-4.007-5.736-9.742-9.114-16.892-9.114
	c-11.707,0-20.663,9.114-20.663,21.135s8.956,21.134,20.663,21.134c7.15,0,12.885-3.378,16.892-9.113l4.557,3.613
	c-4.321,6.836-12.336,11.157-21.528,11.157c-14.692,0.236-27.263-11.942-26.948-26.791
	C-0.309,226.413,12.262,214.235,26.954,214.471"/>
<path fill="#253D90" d="M82.892,214.471c14.536-0.236,27.264,11.943,26.949,26.792c0.315,14.849-12.413,27.027-26.949,26.791
	c-14.692,0.315-27.184-12.099-26.869-26.791C55.708,226.414,68.2,214.235,82.892,214.471 M82.971,220.128
	c-11.707,0-20.584,9.035-20.584,21.056s8.877,21.214,20.584,21.214c11.393,0.157,20.742-9.35,20.506-21.214
	C103.713,229.478,94.364,219.892,82.971,220.128"/>
<polygon fill="#253D90" points="168.294,214.471 168.294,267.19 162.166,267.19 162.166,230.027 145.588,252.498 143.388,252.498 
	126.731,229.87 126.731,267.19 120.603,267.19 120.603,214.471 122.803,214.471 144.409,244.405 166.172,214.471 "/>
<path fill="#253D90" d="M205.926,214.471c14.536-0.236,27.264,11.943,26.949,26.792c0.315,14.849-12.413,27.027-26.949,26.791
	c-14.692,0.315-27.184-12.099-26.869-26.791C178.742,226.414,191.234,214.235,205.926,214.471 M206.005,220.128
	c-11.707,0-20.584,9.035-20.584,21.056s8.877,21.214,20.584,21.214c11.393,0.157,20.742-9.35,20.506-21.214
	C226.747,229.478,217.398,219.892,206.005,220.128"/>
<path fill="#253D90" d="M264.849,215.335h16.264c16.97,0,28.205,10.528,28.205,25.849c0,15.085-11.313,26.006-28.205,26.006h-16.264
	V215.335z M281.034,259.726c12.021,0,19.72-7.7,19.72-18.542c0-11-7.621-18.306-19.72-18.306h-7.857v36.848H281.034z"/>
<rect x="319.059" y="215.335" fill="#253D90" width="8.328" height="51.854"/>
<path fill="#253D90" d="M342.471,252.341c3.457,5.028,7.621,8.25,13.592,8.25c5.343,0,8.957-2.829,8.957-7.229
	c0-3.692-2.2-5.264-7.621-7.778l-5.736-2.671c-7.542-3.457-12.099-7.464-12.099-14.378c0-8.486,7.385-14.064,16.342-14.064
	c7.307,0,13.513,3.693,16.735,9.271l-5.814,4.479c-2.75-4.086-6.522-6.286-10.921-6.286c-4.4,0-7.857,2.2-7.857,6.286
	c0.315,4.085,2.121,4.792,7.228,7.385l5.814,2.672c8.407,3.849,12.414,7.935,12.414,14.77c0,9.035-7.386,15.006-17.364,15.006
	c-8.485,0-15.556-4.242-19.563-11.235L342.471,252.341z"/>
<polygon fill="#253D90" points="396.21,222.799 378.768,222.799 378.768,215.335 422.059,215.335 422.059,222.799 404.538,222.799 
	404.538,267.19 396.21,267.19 "/>
<path fill="#253D90" d="M453.72,214.471c14.692-0.236,27.577,11.942,27.263,26.791c0.314,14.85-12.571,27.028-27.263,26.792
	c-14.85,0.236-27.499-11.942-27.185-26.792C426.299,226.413,438.949,214.235,453.72,214.471 M453.798,222.092
	c-10.764,0-18.62,8.171-18.62,19.092c0,11.078,7.856,19.249,18.62,19.249c10.607,0,18.621-8.171,18.621-19.249
	C472.419,230.342,464.405,222.092,453.798,222.092"/>
<path fill="#253D90" d="M523.408,267.19l-14.77-20.035h-9.507v20.035h-8.328v-51.855h18.935c10.449,0,17.599,6.521,17.599,15.871
	c0,6.835-3.771,12.178-9.978,14.613l15.556,21.371H523.408z M499.131,239.77h10.45c5.735,0,9.192-3.457,9.192-8.485
	c0-5.107-3.457-8.564-9.192-8.564h-10.45V239.77z"/>
<path fill="#253D90" d="M542.421,252.341c3.457,5.028,7.621,8.25,13.592,8.25c5.343,0,8.957-2.829,8.957-7.229
	c0-3.692-2.2-5.264-7.621-7.778l-5.736-2.671c-7.542-3.457-12.099-7.464-12.099-14.378c0-8.486,7.385-14.064,16.342-14.064
	c7.307,0,13.513,3.693,16.735,9.271l-5.814,4.479c-2.75-4.086-6.522-6.286-10.921-6.286c-4.4,0-7.857,2.2-7.857,6.286
	c0.315,4.085,2.121,4.792,7.228,7.385l5.814,2.672c8.407,3.849,12.414,7.935,12.414,14.77c0,9.035-7.386,15.006-17.364,15.006
	c-8.485,0-15.556-4.242-19.563-11.235L542.421,252.341z"/>
<rect x="583.982" y="215.335" fill="#253D90" width="8.328" height="51.854"/>
<path fill="#253D90" d="M629.236,214.471c14.692-0.236,27.577,11.942,27.263,26.791c0.314,14.849-12.571,27.028-27.263,26.792
	c-14.85,0.236-27.499-11.943-27.185-26.792C601.816,226.413,614.465,214.235,629.236,214.471 M629.314,222.092
	c-10.764,0-18.62,8.171-18.62,19.092c0,11.078,7.856,19.249,18.62,19.249c10.607,0,18.621-8.171,18.621-19.249
	C647.935,230.341,639.921,222.092,629.314,222.092 M632.3,195.693h10.057v1.493l-10.136,13.121h-6.128L632.3,195.693z"/>
<polygon fill="#253D90" points="709.059,215.335 709.059,268.055 706.231,268.055 674.647,232.071 674.647,267.189 666.318,267.189 
	666.318,214.472 669.225,214.472 700.731,250.297 700.731,215.335 "/>
<path fill="#253D90" d="M743.862,215.335h16.263c16.971,0,28.206,10.528,28.206,25.849c0,15.085-11.313,26.006-28.206,26.006
	h-16.263V215.335z M760.048,259.726c12.021,0,19.721-7.7,19.721-18.542c0-11-7.621-18.306-19.721-18.306h-7.856v36.848H760.048z"/>
<polygon fill="#253D90" points="798.073,215.335 832.171,215.335 832.171,222.8 806.401,222.8 806.401,236.078 825.807,236.078 
	825.807,243.306 806.401,243.306 806.401,259.727 833.114,259.727 833.114,267.189 798.073,267.189 "/>
<polygon fill="#253D90" points="891.881,214.471 891.881,267.19 883.553,267.19 883.553,234.663 868.703,254.148 865.875,254.148 
	850.947,234.584 850.947,267.19 842.619,267.19 842.619,214.471 845.526,214.471 867.289,243.462 889.052,214.471 "/>
<path fill="#253D90" d="M928.805,214.471c14.692-0.236,27.577,11.942,27.263,26.791c0.314,14.85-12.571,27.028-27.263,26.792
	c-14.849,0.236-27.498-11.942-27.185-26.792C901.385,226.413,914.034,214.235,928.805,214.471 M928.884,222.092
	c-10.764,0-18.621,8.171-18.621,19.092c0,11.078,7.857,19.249,18.621,19.249c10.606,0,18.62-8.171,18.62-19.249
	C947.504,230.342,939.49,222.092,928.884,222.092"/>
<path fill="#253D90" d="M990.008,214.471c9.507,0,17.756,4.635,22.234,11.942l-6.285,4.636c-3.693-5.736-9.035-8.957-15.871-8.957
	c-10.606,0-18.699,8.171-18.699,19.171c0,10.999,8.093,19.17,18.699,19.17c6.836,0,12.178-3.221,15.871-8.957l6.285,4.636
	c-4.399,7.307-12.571,11.942-22.234,11.942c-14.771,0.236-27.577-11.942-27.264-26.791
	C962.431,226.413,975.237,214.235,990.008,214.471"/>
<path fill="#253D90" d="M1054.669,267.19l-14.771-20.035h-9.506v20.035h-8.328v-51.855h18.934c10.45,0,17.599,6.521,17.599,15.871
	c0,6.835-3.77,12.178-9.977,14.613l15.555,21.371H1054.669z M1030.392,239.77h10.449c5.736,0,9.193-3.457,9.193-8.485
	c0-5.107-3.457-8.564-9.193-8.564h-10.449V239.77z"/>
<path fill="#253D90" d="M1102.595,258.547h-23.335l-3.693,8.643h-8.878l22.864-52.719h2.828l22.863,52.719h-8.957L1102.595,258.547z
	 M1090.967,229.948l-8.721,21.45h17.363L1090.967,229.948z M1093.952,195.693h10.057v1.493l-10.135,13.121h-6.129L1093.952,195.693z
	"/>
<polygon fill="#253D90" points="1135.512,222.799 1118.07,222.799 1118.07,215.335 1161.361,215.335 1161.361,222.799 
	1143.84,222.799 1143.84,267.19 1135.512,267.19 "/>
<rect x="1168.981" y="215.335" fill="#253D90" width="8.328" height="51.854"/>
<path fill="#253D90" d="M1214.313,214.471c9.507,0,17.756,4.635,22.234,11.942l-6.285,4.636c-3.693-5.736-9.035-8.957-15.871-8.957
	c-10.606,0-18.699,8.171-18.699,19.171c0,10.999,8.093,19.17,18.699,19.17c6.836,0,12.178-3.221,15.871-8.957l6.285,4.636
	c-4.399,7.307-12.571,11.942-22.234,11.942c-14.771,0.236-27.577-11.942-27.264-26.791
	C1186.736,226.413,1199.542,214.235,1214.313,214.471"/>
<path fill="#253D90" d="M1277.48,258.548h-23.335l-3.692,8.642h-8.878l22.863-52.719h2.828l22.863,52.719h-8.957L1277.48,258.548z
	 M1265.852,229.949l-8.721,21.449h17.364L1265.852,229.949z"/>
<path fill="#253D90" d="M1302.777,228.064c3.457,0,6.05,2.592,6.05,6.127c0,3.457-2.593,6.05-6.05,6.05
	c-3.457,0-6.207-2.593-6.207-6.05S1299.32,228.064,1302.777,228.064 M1302.777,255.876c3.457,0,6.05,2.593,6.05,6.128
	c0,3.457-2.593,6.05-6.05,6.05c-3.457,0-6.207-2.593-6.207-6.05S1299.32,255.876,1302.777,255.876"/>
<path fill="#253D90" d="M368.274,342.736c2.947-2.665,3.968-3.798,3.968-5.555c0-0.624-0.057-1.077-0.171-1.474h5.159
	c0.397,0.907,0.567,1.757,0.567,2.55c0,2.552-1.531,4.195-4.535,6.916c-2.777,2.551-3.911,4.082-3.911,6.179
	c0,2.778,2.097,4.705,4.648,4.705c2.551,0,4.365-1.644,5.499-4.875l4.931,2.154c-1.53,5.272-5.385,8.22-10.6,8.22
	c-5.839,0-10.6-4.082-10.6-9.864C363.229,348.008,364.929,345.627,368.274,342.736 M374.339,322.272
	c2.494,0,4.421,1.871,4.421,4.421c0,2.495-1.927,4.422-4.421,4.422c-2.438,0-4.421-1.927-4.421-4.422
	C369.918,324.199,371.845,322.272,374.339,322.272"/>
<path fill="none" stroke="#253D90" stroke-miterlimit="10" d="M368.274,342.736c2.947-2.665,3.968-3.798,3.968-5.555
	c0-0.624-0.057-1.077-0.171-1.474h5.159c0.397,0.907,0.567,1.757,0.567,2.55c0,2.552-1.531,4.195-4.535,6.916
	c-2.777,2.551-3.911,4.082-3.911,6.179c0,2.778,2.097,4.705,4.648,4.705c2.551,0,4.365-1.644,5.499-4.875l4.931,2.154
	c-1.53,5.272-5.385,8.22-10.6,8.22c-5.839,0-10.6-4.082-10.6-9.864C363.229,348.008,364.929,345.627,368.274,342.736z
	 M374.339,322.272c2.494,0,4.421,1.871,4.421,4.421c0,2.495-1.927,4.422-4.421,4.422c-2.438,0-4.421-1.927-4.421-4.422
	C369.918,324.199,371.845,322.272,374.339,322.272z"/>
<path fill="#253D90" d="M445.764,362.123c-2.211,0.397-4.308,0.623-6.292,0.623c-9.977,0-18.367-4.365-24.205-12.584
	c-2.155,0.793-4.422,1.19-6.86,1.19c-10.713,0.17-19.84-8.616-19.613-19.33c-0.17-10.714,8.957-19.5,19.613-19.33
	c10.601-0.17,19.897,8.616,19.671,19.33c0,6.349-2.948,11.961-7.88,15.532c5.159,6.802,11.564,10.033,20.237,10.033
	c0.964,0,2.778-0.056,5.329-0.226V362.123z M421.899,332.022c0-7.936-5.782-13.832-13.492-13.832
	c-7.652,0-13.378,5.896-13.378,13.775c0,7.993,5.669,13.889,13.435,13.889C416.117,345.854,421.899,339.958,421.899,332.022"/>
<path fill="none" stroke="#253D90" stroke-miterlimit="10" d="M445.764,362.123c-2.211,0.397-4.308,0.623-6.292,0.623
	c-9.977,0-18.367-4.365-24.205-12.584c-2.155,0.793-4.422,1.19-6.86,1.19c-10.713,0.17-19.84-8.616-19.613-19.33
	c-0.17-10.714,8.957-19.5,19.613-19.33c10.601-0.17,19.897,8.616,19.671,19.33c0,6.349-2.948,11.961-7.88,15.532
	c5.159,6.802,11.564,10.033,20.237,10.033c0.964,0,2.778-0.056,5.329-0.226V362.123z M421.899,332.022
	c0-7.936-5.782-13.832-13.492-13.832c-7.652,0-13.378,5.896-13.378,13.775c0,7.993,5.669,13.889,13.435,13.889
	C416.117,345.854,421.899,339.958,421.899,332.022z"/>
<path fill="#253D90" d="M434.597,322.896h5.895v16.609c0,3.855,2.665,6.349,6.293,6.349c3.458,0,6.122-2.494,6.122-6.349v-16.609
	h5.952v16.156c0,7.482-5.272,12.301-12.074,12.301c-6.973,0-12.188-4.819-12.188-12.301V322.896z"/>
<path fill="none" stroke="#253D90" stroke-miterlimit="10" d="M434.597,322.896h5.895v16.609c0,3.855,2.665,6.349,6.293,6.349
	c3.458,0,6.122-2.494,6.122-6.349v-16.609h5.952v16.156c0,7.482-5.272,12.301-12.074,12.301c-6.973,0-12.188-4.819-12.188-12.301
	V322.896z"/>
<path fill="#253D90" d="M471.499,338.767c0.737,4.536,4.308,7.313,9.07,7.313c2.891,0,5.612-1.077,8.106-3.288l2.834,4.082
	c-3.174,3.004-6.859,4.478-11.11,4.478c-8.503,0-14.965-6.292-14.965-14.512c-0.17-7.993,6.519-14.738,14.398-14.568
	c7.369,0,12.868,5.498,12.868,12.754c0,1.191-0.17,2.438-0.453,3.741H471.499z M486.748,334.119
	c-0.057-4.251-3.231-6.802-7.143-6.802c-3.911,0-7.085,2.664-7.993,6.802H486.748z M482.043,306.513h7.256v1.077l-7.313,10.941
	h-4.422L482.043,306.513z"/>
<path fill="none" stroke="#253D90" stroke-miterlimit="10" d="M471.499,338.767c0.737,4.536,4.308,7.313,9.07,7.313
	c2.891,0,5.612-1.077,8.106-3.288l2.834,4.082c-3.174,3.004-6.859,4.478-11.11,4.478c-8.503,0-14.965-6.292-14.965-14.512
	c-0.17-7.993,6.519-14.738,14.398-14.568c7.369,0,12.868,5.498,12.868,12.754c0,1.191-0.17,2.438-0.453,3.741H471.499z
	 M486.748,334.119c-0.057-4.251-3.231-6.802-7.143-6.802c-3.911,0-7.085,2.664-7.993,6.802H486.748z M482.043,306.513h7.256v1.077
	l-7.313,10.941h-4.422L482.043,306.513z"/>
<path fill="#253D90" d="M530.622,351.352c-3.797,0-7.085-1.473-9.296-4.025v13.605h-5.952v-38.036h5.555v3.911
	c2.041-2.891,5.612-4.535,9.693-4.535c7.88,0,13.662,6.292,13.662,14.512C544.284,345.117,538.502,351.352,530.622,351.352
	 M529.659,327.714c-4.365,0-8.39,3.004-8.39,9.07c0,6.122,4.025,9.126,8.39,9.126c4.762,0,8.503-3.741,8.503-9.07
	C538.162,331.512,534.477,327.714,529.659,327.714"/>
<path fill="none" stroke="#253D90" stroke-miterlimit="10" d="M530.622,351.352c-3.797,0-7.085-1.473-9.296-4.025v13.605h-5.952
	v-38.036h5.555v3.911c2.041-2.891,5.612-4.535,9.693-4.535c7.88,0,13.662,6.292,13.662,14.512
	C544.284,345.117,538.502,351.352,530.622,351.352z M529.659,327.714c-4.365,0-8.39,3.004-8.39,9.07c0,6.122,4.025,9.126,8.39,9.126
	c4.762,0,8.503-3.741,8.503-9.07C538.162,331.512,534.477,327.714,529.659,327.714z"/>
<path fill="#253D90" d="M564.068,322.272c8.106-0.17,14.965,6.632,14.795,14.512c0.17,7.879-6.689,14.738-14.795,14.568
	c-7.993,0.17-14.852-6.689-14.682-14.568C549.216,328.791,556.075,322.159,564.068,322.272 M564.125,327.714
	c-4.932,0-8.673,3.968-8.673,9.126c0,5.159,3.741,9.014,8.616,9.014c4.932,0,8.673-3.969,8.673-9.014
	C572.741,331.682,568.943,327.714,564.125,327.714"/>
<path fill="none" stroke="#253D90" stroke-miterlimit="10" d="M564.068,322.272c8.106-0.17,14.965,6.632,14.795,14.512
	c0.17,7.879-6.689,14.738-14.795,14.568c-7.993,0.17-14.852-6.689-14.682-14.568C549.216,328.791,556.075,322.159,564.068,322.272z
	 M564.125,327.714c-4.932,0-8.673,3.968-8.673,9.126c0,5.159,3.741,9.014,8.616,9.014c4.932,0,8.673-3.969,8.673-9.014
	C572.741,331.682,568.943,327.714,564.125,327.714z"/>
<path fill="#253D90" d="M612.818,308.214v42.515h-5.555v-3.969c-2.041,2.891-5.612,4.592-9.75,4.592
	c-7.823,0-13.605-6.292-13.605-14.512c-0.17-8.105,5.896-14.738,13.605-14.568c3.854,0,7.199,1.474,9.296,4.025v-18.083H612.818z
	 M598.533,327.714c-4.761,0-8.56,3.741-8.56,9.07c0,5.328,3.628,9.126,8.56,9.126c4.365,0,8.39-3.004,8.39-9.07
	C606.923,330.832,602.842,327.714,598.533,327.714"/>
<path fill="none" stroke="#253D90" stroke-miterlimit="10" d="M612.818,308.214v42.515h-5.555v-3.969
	c-2.041,2.891-5.612,4.592-9.75,4.592c-7.823,0-13.605-6.292-13.605-14.512c-0.17-8.105,5.896-14.738,13.605-14.568
	c3.854,0,7.199,1.474,9.296,4.025v-18.083H612.818z M598.533,327.714c-4.761,0-8.56,3.741-8.56,9.07c0,5.328,3.628,9.126,8.56,9.126
	c4.365,0,8.39-3.004,8.39-9.07C606.923,330.832,602.842,327.714,598.533,327.714z"/>
<path fill="#253D90" d="M625.743,338.768c0.737,4.535,4.309,7.312,9.07,7.312c2.891,0,5.613-1.076,8.107-3.287l2.834,4.081
	c-3.175,3.005-6.859,4.478-11.111,4.478c-8.503,0-14.965-6.292-14.965-14.511c-0.17-7.993,6.519-14.739,14.398-14.569
	c7.37,0,12.868,5.499,12.868,12.755c0,1.19-0.17,2.437-0.453,3.741H625.743z M640.992,334.12c-0.057-4.251-3.231-6.803-7.142-6.803
	c-3.912,0-7.086,2.665-7.993,6.803H640.992z"/>
<path fill="none" stroke="#253D90" stroke-miterlimit="10" d="M625.743,338.768c0.737,4.535,4.309,7.312,9.07,7.312
	c2.891,0,5.613-1.076,8.107-3.287l2.834,4.081c-3.175,3.005-6.859,4.478-11.111,4.478c-8.503,0-14.965-6.292-14.965-14.511
	c-0.17-7.993,6.519-14.739,14.398-14.569c7.37,0,12.868,5.499,12.868,12.755c0,1.19-0.17,2.437-0.453,3.741H625.743z
	 M640.992,334.12c-0.057-4.251-3.231-6.803-7.142-6.803c-3.912,0-7.086,2.665-7.993,6.803H640.992z"/>
<path fill="#253D90" d="M695.524,350.729h-6.009v-16.552c0-3.912-2.211-6.463-5.782-6.463c-3.628,0-6.122,2.608-6.122,6.179v16.836
	h-5.952v-16.552c0-3.855-2.267-6.463-5.839-6.463c-3.628,0-6.122,2.608-6.122,6.463v16.552h-5.952v-27.833h5.555v2.607
	c1.985-2.04,4.705-3.231,8.05-3.231c3.855,0,6.802,1.645,8.446,4.365c2.04-2.664,5.498-4.365,9.411-4.365
	c6.405,0,10.316,4.422,10.316,11.054V350.729z"/>
<path fill="none" stroke="#253D90" stroke-miterlimit="10" d="M695.524,350.729h-6.009v-16.552c0-3.912-2.211-6.463-5.782-6.463
	c-3.628,0-6.122,2.608-6.122,6.179v16.836h-5.952v-16.552c0-3.855-2.267-6.463-5.839-6.463c-3.628,0-6.122,2.608-6.122,6.463v16.552
	h-5.952v-27.833h5.555v2.607c1.985-2.04,4.705-3.231,8.05-3.231c3.855,0,6.802,1.645,8.446,4.365
	c2.04-2.664,5.498-4.365,9.411-4.365c6.405,0,10.316,4.422,10.316,11.054V350.729z"/>
<path fill="#253D90" d="M716.725,322.272c8.107-0.17,14.966,6.632,14.795,14.512c0.171,7.879-6.688,14.738-14.795,14.568
	c-7.992,0.17-14.851-6.689-14.681-14.568C701.874,328.791,708.733,322.159,716.725,322.272 M716.782,327.714
	c-4.932,0-8.673,3.968-8.673,9.126c0,5.159,3.741,9.014,8.616,9.014c4.932,0,8.673-3.969,8.673-9.014
	C725.398,331.682,721.6,327.714,716.782,327.714"/>
<path fill="none" stroke="#253D90" stroke-miterlimit="10" d="M716.725,322.272c8.107-0.17,14.966,6.632,14.795,14.512
	c0.171,7.879-6.688,14.738-14.795,14.568c-7.992,0.17-14.851-6.689-14.681-14.568C701.874,328.791,708.733,322.159,716.725,322.272z
	 M716.782,327.714c-4.932,0-8.673,3.968-8.673,9.126c0,5.159,3.741,9.014,8.616,9.014c4.932,0,8.673-3.969,8.673-9.014
	C725.398,331.682,721.6,327.714,716.782,327.714z"/>
<path fill="#253D90" d="M739.117,342.226c2.438,2.551,4.875,3.968,7.823,3.968c2.551,0,4.478-1.077,4.478-3.118
	c0-1.643-1.191-2.324-3.911-3.457l-2.834-1.191c-4.932-2.041-7.256-4.195-7.256-8.106c0-4.989,4.138-8.05,9.806-8.05
	c4.025,0,7.2,1.417,9.637,4.308l-3.231,3.685c-1.757-1.814-4.081-2.834-6.519-2.834c-2.324,0-3.798,0.907-3.798,2.664
	c0,1.417,0.963,2.154,3.685,3.288l2.664,1.077c5.271,2.211,7.596,4.478,7.596,8.39c0,2.664-0.964,4.761-2.948,6.292
	c-1.984,1.474-4.421,2.21-7.369,2.21c-4.761,0-8.73-2.154-11.224-5.385L739.117,342.226z"/>
<path fill="none" stroke="#253D90" stroke-miterlimit="10" d="M739.117,342.226c2.438,2.551,4.875,3.968,7.823,3.968
	c2.551,0,4.478-1.077,4.478-3.118c0-1.643-1.191-2.324-3.911-3.457l-2.834-1.191c-4.932-2.041-7.256-4.195-7.256-8.106
	c0-4.989,4.138-8.05,9.806-8.05c4.025,0,7.2,1.417,9.637,4.308l-3.231,3.685c-1.757-1.814-4.081-2.834-6.519-2.834
	c-2.324,0-3.798,0.907-3.798,2.664c0,1.417,0.963,2.154,3.685,3.288l2.664,1.077c5.271,2.211,7.596,4.478,7.596,8.39
	c0,2.664-0.964,4.761-2.948,6.292c-1.984,1.474-4.421,2.21-7.369,2.21c-4.761,0-8.73-2.154-11.224-5.385L739.117,342.226z"/>
<path fill="#253D90" d="M804.306,350.729h-5.952v-16.552c0-3.855-2.381-6.463-6.066-6.463c-3.684,0-6.349,2.664-6.349,6.463v16.552
	h-5.951v-42.515h5.951v17.46c1.871-2.211,4.705-3.402,8.05-3.402c6.348,0,10.317,4.478,10.317,11.054V350.729z"/>
<path fill="none" stroke="#253D90" stroke-miterlimit="10" d="M804.306,350.729h-5.952v-16.552c0-3.855-2.381-6.463-6.066-6.463
	c-3.684,0-6.349,2.664-6.349,6.463v16.552h-5.951v-42.515h5.951v17.46c1.871-2.211,4.705-3.402,8.05-3.402
	c6.348,0,10.317,4.478,10.317,11.054V350.729z"/>
<path fill="#253D90" d="M834.69,350.729h-5.556v-3.118c-2.04,2.438-5.101,3.741-8.899,3.741c-5.839,0-9.694-3.231-9.694-8.049
	s3.968-7.936,10.26-7.936h7.88v-1.814c0-3.855-2.154-5.952-5.952-5.952c-3.118,0-5.386,1.36-7.709,4.138l-3.458-3.515
	c2.777-4.025,6.915-5.952,11.733-5.952c6.86,0,11.395,4.138,11.395,11.621V350.729z M828.681,339.675h-7.143
	c-3.174,0-4.931,1.134-4.931,3.401c0,2.324,1.984,3.684,4.875,3.684c4.024,0,7.199-2.777,7.199-6.575V339.675z"/>
<path fill="none" stroke="#253D90" stroke-miterlimit="10" d="M834.69,350.729h-5.556v-3.118c-2.04,2.438-5.101,3.741-8.899,3.741
	c-5.839,0-9.694-3.231-9.694-8.049s3.968-7.936,10.26-7.936h7.88v-1.814c0-3.855-2.154-5.952-5.952-5.952
	c-3.118,0-5.386,1.36-7.709,4.138l-3.458-3.515c2.777-4.025,6.915-5.952,11.733-5.952c6.86,0,11.395,4.138,11.395,11.621V350.729z
	 M828.681,339.675h-7.143c-3.174,0-4.931,1.134-4.931,3.401c0,2.324,1.984,3.684,4.875,3.684c4.024,0,7.199-2.777,7.199-6.575
	V339.675z"/>
<path fill="#253D90" d="M855.947,322.272c5.159,0,9.297,2.438,11.734,6.462l-4.194,3.288c-1.984-2.834-4.478-4.251-7.483-4.251
	c-4.989,0-8.73,3.968-8.73,9.013c0,5.101,3.741,9.07,8.73,9.07c2.948,0,5.442-1.417,7.483-4.195l4.194,3.231
	c-2.494,4.025-6.689,6.462-11.734,6.462c-8.219,0-14.738-6.462-14.738-14.568C841.039,328.791,847.955,322.159,855.947,322.272"/>
<path fill="none" stroke="#253D90" stroke-miterlimit="10" d="M855.947,322.272c5.159,0,9.297,2.438,11.734,6.462l-4.194,3.288
	c-1.984-2.834-4.478-4.251-7.483-4.251c-4.989,0-8.73,3.968-8.73,9.013c0,5.101,3.741,9.07,8.73,9.07
	c2.948,0,5.442-1.417,7.483-4.195l4.194,3.231c-2.494,4.025-6.689,6.462-11.734,6.462c-8.219,0-14.738-6.462-14.738-14.568
	C841.039,328.791,847.955,322.159,855.947,322.272z"/>
<path fill="#253D90" d="M878.564,338.768c0.737,4.535,4.309,7.312,9.07,7.312c2.891,0,5.612-1.076,8.106-3.287l2.835,4.081
	c-3.175,3.005-6.86,4.478-11.112,4.478c-8.503,0-14.964-6.292-14.964-14.511c-0.17-7.993,6.518-14.739,14.398-14.569
	c7.369,0,12.868,5.499,12.868,12.755c0,1.19-0.17,2.437-0.454,3.741H878.564z M893.813,334.12c-0.057-4.251-3.231-6.803-7.143-6.803
	c-3.911,0-7.086,2.665-7.993,6.803H893.813z"/>
<path fill="none" stroke="#253D90" stroke-miterlimit="10" d="M878.564,338.768c0.737,4.535,4.309,7.312,9.07,7.312
	c2.891,0,5.612-1.076,8.106-3.287l2.835,4.081c-3.175,3.005-6.86,4.478-11.112,4.478c-8.503,0-14.964-6.292-14.964-14.511
	c-0.17-7.993,6.518-14.739,14.398-14.569c7.369,0,12.868,5.499,12.868,12.755c0,1.19-0.17,2.437-0.454,3.741H878.564z
	 M893.813,334.12c-0.057-4.251-3.231-6.803-7.143-6.803c-3.911,0-7.086,2.665-7.993,6.803H893.813z"/>
<path fill="#253D90" d="M922.497,328.167h-1.814c-4.706,0-8.164,2.777-8.164,7.709v14.852h-5.951v-27.833h5.555v3.628
	c1.984-2.494,4.932-3.911,8.106-3.911c0.851,0,1.587,0.113,2.268,0.283V328.167z"/>
<path fill="none" stroke="#253D90" stroke-miterlimit="10" d="M922.497,328.167h-1.814c-4.706,0-8.164,2.777-8.164,7.709v14.852
	h-5.951v-27.833h5.555v3.628c1.984-2.494,4.932-3.911,8.106-3.911c0.851,0,1.587,0.113,2.268,0.283V328.167z"/>
<path fill="#253D90" d="M936.612,328.677c2.947-2.664,3.911-3.798,3.911-5.895c0-2.665-2.041-4.592-4.592-4.592
	c-2.494,0-4.42,1.701-5.498,4.875l-4.988-2.154c1.587-5.272,5.498-8.22,10.713-8.22c5.782,0,10.544,4.025,10.544,9.637
	c0,3.345-1.644,5.782-5.045,8.787c-3.004,2.664-4.024,3.684-4.024,5.328c0,0.397,0.056,0.907,0.226,1.531h-5.101
	c-0.398-0.908-0.624-1.758-0.624-2.608C932.134,333.042,933.664,331.172,936.612,328.677 M935.535,342.565
	c2.494,0,4.422,1.871,4.422,4.422c0,2.494-1.928,4.365-4.422,4.365c-2.494,0-4.422-1.871-4.422-4.365
	C931.113,344.494,933.041,342.565,935.535,342.565"/>
<path fill="none" stroke="#253D90" stroke-miterlimit="10" d="M936.612,328.677c2.947-2.664,3.911-3.798,3.911-5.895
	c0-2.665-2.041-4.592-4.592-4.592c-2.494,0-4.42,1.701-5.498,4.875l-4.988-2.154c1.587-5.272,5.498-8.22,10.713-8.22
	c5.782,0,10.544,4.025,10.544,9.637c0,3.345-1.644,5.782-5.045,8.787c-3.004,2.664-4.024,3.684-4.024,5.328
	c0,0.397,0.056,0.907,0.226,1.531h-5.101c-0.398-0.908-0.624-1.758-0.624-2.608C932.134,333.042,933.664,331.172,936.612,328.677z
	 M935.535,342.565c2.494,0,4.422,1.871,4.422,4.422c0,2.494-1.928,4.365-4.422,4.365c-2.494,0-4.422-1.871-4.422-4.365
	C931.113,344.494,933.041,342.565,935.535,342.565z"/>
<polygon fill="#253D90" points="262.733,123.029 268.861,123.029 268.861,169.384 293.453,169.384 293.453,174.883 262.733,174.883 
	"/>
<path fill="#253D90" d="M334.072,164.355h-25.456l-4.4,10.528h-6.442l22.47-52.719h2.279l22.47,52.719h-6.521L334.072,164.355z
	 M321.344,133.321l-10.371,25.534h20.742L321.344,133.321z"/>
<path fill="#253D90" d="M375.946,123.028h16.264c16.97,0,28.205,10.528,28.205,25.849c0,15.085-11.313,26.006-28.205,26.006h-16.264
	V123.028z M392.132,167.419c12.021,0,19.72-7.7,19.72-18.542c0-11-7.621-18.306-19.72-18.306h-7.857v36.848H392.132z"/>
<path fill="none" stroke="#253D90" stroke-miterlimit="10" d="M375.946,123.028h16.264c16.97,0,28.205,10.528,28.205,25.849
	c0,15.085-11.313,26.006-28.205,26.006h-16.264V123.028z M392.132,167.419c12.021,0,19.72-7.7,19.72-18.542
	c0-11-7.621-18.306-19.72-18.306h-7.857v36.848H392.132z"/>
<polygon fill="#253D90" points="430.313,123.029 464.412,123.029 464.412,130.493 438.641,130.493 438.641,143.771 458.047,143.771 
	458.047,150.999 438.641,150.999 438.641,167.42 465.354,167.42 465.354,174.883 430.313,174.883 "/>
<polygon fill="none" stroke="#253D90" stroke-miterlimit="10" points="430.313,123.029 464.412,123.029 464.412,130.493 
	438.641,130.493 438.641,143.771 458.047,143.771 458.047,150.999 438.641,150.999 438.641,167.42 465.354,167.42 465.354,174.883 
	430.313,174.883 "/>
<path fill="#253D90" d="M477.217,160.034c3.457,5.028,7.621,8.25,13.592,8.25c5.343,0,8.957-2.829,8.957-7.229
	c0-3.692-2.2-5.264-7.621-7.778l-5.736-2.671c-7.542-3.457-12.099-7.464-12.099-14.378c0-8.486,7.385-14.064,16.342-14.064
	c7.307,0,13.513,3.693,16.735,9.271l-5.814,4.479c-2.75-4.086-6.522-6.286-10.921-6.286c-4.4,0-7.857,2.2-7.857,6.286
	c0.315,4.085,2.121,4.792,7.228,7.385l5.814,2.672c8.407,3.849,12.414,7.935,12.414,14.77c0,9.035-7.386,15.006-17.364,15.006
	c-8.485,0-15.556-4.242-19.563-11.235L477.217,160.034z"/>
<path fill="none" stroke="#253D90" stroke-miterlimit="10" d="M477.217,160.034c3.457,5.028,7.621,8.25,13.592,8.25
	c5.343,0,8.957-2.829,8.957-7.229c0-3.692-2.2-5.264-7.621-7.778l-5.736-2.671c-7.542-3.457-12.099-7.464-12.099-14.378
	c0-8.486,7.385-14.064,16.342-14.064c7.307,0,13.513,3.693,16.735,9.271l-5.814,4.479c-2.75-4.086-6.522-6.286-10.921-6.286
	c-4.4,0-7.857,2.2-7.857,6.286c0.315,4.085,2.121,4.792,7.228,7.385l5.814,2.672c8.407,3.849,12.414,7.935,12.414,14.77
	c0,9.035-7.386,15.006-17.364,15.006c-8.485,0-15.556-4.242-19.563-11.235L477.217,160.034z"/>
<rect x="518.935" y="123.029" fill="#253D90" width="8.328" height="51.854"/>
<rect x="518.935" y="123.029" fill="none" stroke="#253D90" stroke-miterlimit="10" width="8.328" height="51.854"/>
<polygon fill="#253D90" points="583.044,123.029 583.044,175.748 580.216,175.748 548.631,139.764 548.631,174.883 540.303,174.883 
	540.303,122.165 543.211,122.165 574.716,157.991 574.716,123.029 "/>
<polygon fill="none" stroke="#253D90" stroke-miterlimit="10" points="583.044,123.029 583.044,175.748 580.216,175.748 
	548.631,139.764 548.631,174.883 540.303,174.883 540.303,122.165 543.211,122.165 574.716,157.991 574.716,123.029 "/>
<polygon fill="#253D90" points="596.164,123.029 629.477,123.029 629.477,130.493 604.492,130.493 604.492,145.971 625.077,145.971 
	625.077,153.513 604.492,153.513 604.492,174.883 596.164,174.883 "/>
<polygon fill="none" stroke="#253D90" stroke-miterlimit="10" points="596.164,123.029 629.477,123.029 629.477,130.493 
	604.492,130.493 604.492,145.971 625.077,145.971 625.077,153.513 604.492,153.513 604.492,174.883 596.164,174.883 "/>
<path fill="#253D90" d="M661.767,122.165c14.692-0.236,27.577,11.942,27.262,26.791c0.315,14.85-12.57,27.028-27.262,26.792
	c-14.85,0.236-27.499-11.942-27.185-26.792C634.346,134.107,646.996,121.929,661.767,122.165 M661.845,129.786
	c-10.764,0-18.62,8.171-18.62,19.092c0,11.078,7.856,19.249,18.62,19.249c10.607,0,18.621-8.171,18.621-19.249
	C680.466,138.036,672.452,129.786,661.845,129.786"/>
<path fill="none" stroke="#253D90" stroke-miterlimit="10" d="M661.767,122.165c14.692-0.236,27.577,11.942,27.262,26.791
	c0.315,14.85-12.57,27.028-27.262,26.792c-14.85,0.236-27.499-11.942-27.185-26.792
	C634.346,134.107,646.996,121.929,661.767,122.165z M661.845,129.786c-10.764,0-18.62,8.171-18.62,19.092
	c0,11.078,7.856,19.249,18.62,19.249c10.607,0,18.621-8.171,18.621-19.249C680.466,138.036,672.452,129.786,661.845,129.786z"/>
<path fill="#253D90" d="M731.612,174.883l-14.771-20.035h-9.506v20.035h-8.328v-51.855h18.934c10.45,0,17.599,6.521,17.599,15.871
	c0,6.835-3.77,12.178-9.977,14.613l15.555,21.371H731.612z M707.335,147.463h10.449c5.736,0,9.193-3.457,9.193-8.485
	c0-5.107-3.457-8.564-9.193-8.564h-10.449V147.463z"/>
<path fill="none" stroke="#253D90" stroke-miterlimit="10" d="M731.612,174.883l-14.771-20.035h-9.506v20.035h-8.328v-51.855h18.934
	c10.45,0,17.599,6.521,17.599,15.871c0,6.835-3.77,12.178-9.977,14.613l15.555,21.371H731.612z M707.335,147.463h10.449
	c5.736,0,9.193-3.457,9.193-8.485c0-5.107-3.457-8.564-9.193-8.564h-10.449V147.463z"/>
<polygon fill="#253D90" points="797.843,122.165 797.843,174.884 789.515,174.884 789.515,142.357 774.665,161.842 771.837,161.842 
	756.909,142.278 756.909,174.884 748.581,174.884 748.581,122.165 751.488,122.165 773.251,151.156 795.014,122.165 "/>
<polygon fill="none" stroke="#253D90" stroke-miterlimit="10" points="797.843,122.165 797.843,174.884 789.515,174.884 
	789.515,142.357 774.665,161.842 771.837,161.842 756.909,142.278 756.909,174.884 748.581,174.884 748.581,122.165 
	751.488,122.165 773.251,151.156 795.014,122.165 "/>
<path fill="#253D90" d="M841.997,166.241h-23.335l-3.692,8.642h-8.878l22.863-52.719h2.828l22.863,52.719h-8.957L841.997,166.241z
	 M830.369,137.642l-8.721,21.449h17.364L830.369,137.642z"/>
<path fill="none" stroke="#253D90" stroke-miterlimit="10" d="M841.997,166.241h-23.335l-3.692,8.642h-8.878l22.863-52.719h2.828
	l22.863,52.719h-8.957L841.997,166.241z M830.369,137.642l-8.721,21.449h17.364L830.369,137.642z"/>
<path fill="#253D90" d="M887.014,122.165c9.507,0,17.756,4.635,22.234,11.942l-6.285,4.636c-3.693-5.736-9.035-8.957-15.871-8.957
	c-10.606,0-18.699,8.171-18.699,19.171c0,10.999,8.093,19.17,18.699,19.17c6.836,0,12.178-3.221,15.871-8.957l6.285,4.636
	c-4.399,7.307-12.571,11.942-22.234,11.942c-14.771,0.236-27.577-11.942-27.264-26.791
	C859.437,134.107,872.243,121.929,887.014,122.165"/>
<path fill="none" stroke="#253D90" stroke-miterlimit="10" d="M887.014,122.165c9.507,0,17.756,4.635,22.234,11.942l-6.285,4.636
	c-3.693-5.736-9.035-8.957-15.871-8.957c-10.606,0-18.699,8.171-18.699,19.171c0,10.999,8.093,19.17,18.699,19.17
	c6.836,0,12.178-3.221,15.871-8.957l6.285,4.636c-4.399,7.307-12.571,11.942-22.234,11.942
	c-14.771,0.236-27.577-11.942-27.264-26.791C859.437,134.107,872.243,121.929,887.014,122.165z"/>
<rect x="919.227" y="123.029" fill="#253D90" width="8.328" height="51.854"/>
<rect x="919.227" y="123.029" fill="none" stroke="#253D90" stroke-miterlimit="10" width="8.328" height="51.854"/>
<path fill="#253D90" d="M964.637,122.165c14.692-0.236,27.577,11.942,27.263,26.791c0.314,14.849-12.571,27.028-27.263,26.792
	c-14.849,0.236-27.498-11.943-27.185-26.792C937.217,134.107,949.866,121.929,964.637,122.165 M964.716,129.786
	c-10.764,0-18.621,8.171-18.621,19.092c0,11.078,7.857,19.249,18.621,19.249c10.606,0,18.62-8.171,18.62-19.249
	C983.336,138.035,975.322,129.786,964.716,129.786 M967.701,103.387h10.057v1.493l-10.136,13.121h-6.128L967.701,103.387z"/>
<path fill="none" stroke="#253D90" stroke-miterlimit="10" d="M964.637,122.165c14.692-0.236,27.577,11.942,27.263,26.791
	c0.314,14.849-12.571,27.028-27.263,26.792c-14.849,0.236-27.498-11.943-27.185-26.792
	C937.217,134.107,949.866,121.929,964.637,122.165z M964.716,129.786c-10.764,0-18.621,8.171-18.621,19.092
	c0,11.078,7.857,19.249,18.621,19.249c10.606,0,18.62-8.171,18.62-19.249C983.336,138.035,975.322,129.786,964.716,129.786z
	 M967.701,103.387h10.057v1.493l-10.136,13.121h-6.128L967.701,103.387z"/>
<polygon fill="#253D90" points="1044.617,123.029 1044.617,175.748 1041.789,175.748 1010.205,139.764 1010.205,174.883 
	1001.877,174.883 1001.877,122.165 1004.783,122.165 1036.289,157.991 1036.289,123.029 "/>
<polygon fill="none" stroke="#253D90" stroke-miterlimit="10" points="1044.617,123.029 1044.617,175.748 1041.789,175.748 
	1010.205,139.764 1010.205,174.883 1001.877,174.883 1001.877,122.165 1004.783,122.165 1036.289,157.991 1036.289,123.029 "/>
</svg>
