<?xml version="1.0" encoding="utf-8"?>
<!-- Generator: Adobe Illustrator 17.0.0, SVG Export Plug-In . SVG Version: 6.00 Build 0)  -->
<!DOCTYPE svg PUBLIC "-//W3C//DTD SVG 1.1//EN" "http://www.w3.org/Graphics/SVG/1.1/DTD/svg11.dtd">
<svg version="1.1" id="Layer_1" xmlns="http://www.w3.org/2000/svg" xmlns:xlink="http://www.w3.org/1999/xlink" x="0px" y="0px"
	 width="297.713px" height="84.37px" viewBox="0 0 297.713 84.37" enable-background="new 0 0 297.713 84.37" xml:space="preserve">
<rect fill="#243978" width="297.713" height="84.37"/>
<path fill="#FFFFFF" d="M55.885,30.171h8.801c4.857,0,8.179,3.031,8.179,7.376c0,4.309-3.322,7.413-8.179,7.413h-4.929v9.311h-3.872
	V30.171z M64.613,41.527c2.738,0,4.271-1.57,4.271-3.943c0-2.374-1.533-3.98-4.271-3.98h-4.856v7.923H64.613z"/>
<path fill="#FFFFFF" d="M91.636,50.254H80.792l-1.716,4.017H74.95L85.575,29.77h1.314l10.626,24.501h-4.163L91.636,50.254z
	 M86.232,36.963l-4.053,9.968h8.07L86.232,36.963z"/>
<path fill="#FFFFFF" d="M116.506,54.271l-6.865-9.311h-4.418v9.311h-3.871v-24.1h8.801c4.856,0,8.178,3.031,8.178,7.376
	c0,3.177-1.753,5.66-4.637,6.792l7.23,9.932H116.506z M105.223,41.527h4.856c2.665,0,4.272-1.606,4.272-3.943
	c0-2.374-1.607-3.98-4.272-3.98h-4.856V41.527z"/>
<polygon fill="#FFFFFF" points="130.056,33.641 121.95,33.641 121.95,30.172 142.069,30.172 142.069,33.641 133.926,33.641 
	133.926,54.271 130.056,54.271 "/>
<rect x="145.687" y="30.171" fill="#FFFFFF" width="3.871" height="24.1"/>
<path fill="#FFFFFF" d="M166.83,29.77c4.419,0,8.253,2.154,10.334,5.55l-2.921,2.155c-1.717-2.666-4.199-4.163-7.376-4.163
	c-4.93,0-8.69,3.797-8.69,8.909c0,5.112,3.76,8.91,8.69,8.91c3.177,0,5.659-1.497,7.376-4.163l2.921,2.155
	c-2.045,3.395-5.843,5.55-10.334,5.55c-6.864,0.109-12.816-5.55-12.67-12.452C154.014,35.32,159.966,29.66,166.83,29.77"/>
<rect x="181.805" y="30.171" fill="#FFFFFF" width="3.871" height="24.1"/>
<path fill="#FFFFFF" d="M191.738,30.171h8.801c4.857,0,8.179,3.031,8.179,7.376c0,4.309-3.322,7.413-8.179,7.413h-4.929v9.311
	h-3.872V30.171z M200.466,41.527c2.738,0,4.271-1.57,4.271-3.943c0-2.374-1.533-3.98-4.271-3.98h-4.856v7.923H200.466z"/>
<path fill="#FFFFFF" d="M227.49,50.254h-10.845l-1.716,4.017h-4.126l10.625-24.501h1.315l10.626,24.501h-4.164L227.49,50.254z
	 M222.085,36.963l-4.052,9.969h8.069L222.085,36.963z M223.473,21.043h4.674v0.694l-4.71,6.098h-2.849L223.473,21.043z"/>
</svg>
